<svg xmlns="http://www.w3.org/2000/svg" xmlns:xlink="http://www.w3.org/1999/xlink" width="523.533" height="397.47" viewBox="0 0 523.533 397.47">
  <defs>
    <clipPath id="clip-path">
      <path id="Path" d="M.633,6.175c-.226-.65-1.763-2.664.975-4.582.492-.345,1.3,0,2.009-.219.53-.164.709-.9,1.316-1.032C5.564.208,6.25.814,6.962.761,7.4.728,8.072.048,8.526.012c.811-.065,1.548.7,2.34.749.459.029.992-.71,1.448-.749a12.216,12.216,0,0,1,3.1.579c.9.145,1.32,1.991,1.983,2.427,2.082,1.369,3.714,1.752,5.4,3.157,2.009,1.67,2.393,2.913,3.225,4.026s1.346,5.035.861,7.548c-.286,1.483-1.032,5.532-2.7,7.1-2.281,2.146-6.921,2.781-7.333,2.5-1.908-1.326-6.184-8.659-9.218-11.251A26.018,26.018,0,0,1,.633,6.175Z" transform="translate(0 0)" fill="#ff9b21"/>
    </clipPath>
  </defs>
  <g id="Group_14" data-name="Group 14" transform="translate(-409.85 -1520.823)">
    <g id="Scene_Home" data-name="Scene/Home" transform="translate(409.85 1520.823)">
      <path id="Background_Shape" data-name="Background Shape" d="M.657,100.8c13.2-51.032,146.76-21.96,234.321-37.736S426.131-26.183,494.69,9.808,490.3,132.8,333.058,152.436-12.543,151.837.657,100.8Z" transform="translate(3.051 172.602)" fill="#f2f2f2"/>
      <g id="Cells" transform="translate(43.738 37.322)" opacity="0.5">
        <path id="Fill_5" data-name="Fill 5" d="M.566.524c-.821.819-.5,3.732-.519,4.809C.02,7.011.125,8.674.265,10.346c.094,1.119.624,11.8,2.1,10.981.831-.462.31-3.552.309-4.53,0-2.173-.094-4.341-.239-6.509a56.965,56.965,0,0,1-.142-6.019C2.31,3.777,2.771-1.685.566.524" transform="translate(0.322 0.803)" fill="#fff"/>
        <path id="Fill_7" data-name="Fill 7" d="M36.593.009c-7.051.056-14.1.4-21.147.617-3.391.1-6.78.233-10.168.421-1.154.064-3.63-.305-4.592.31C-1.448,2.722,1.995,3.042,2.913,3.008c13.947-.506,27.9-1.172,41.859-1.2,6.848-.015,13.692.18,20.54.136,2.618-.017,5.517-1.145,6.178,1.9.746,3.438-.111,7.267-.344,10.722a60.618,60.618,0,0,0,0,6.869,36.053,36.053,0,0,0,.154,4.589c.251,1.4,1.254,2.232,2.174.669.549-.934.276-3.24.313-4.321.049-1.457,0-2.914,0-4.371,0-3.557.5-7.1.435-10.656-.043-2.293-.164-6.45-3.057-7-3.185-.607-7.1,0-10.359-.034C52.734.217,44.672-.054,36.593.009" transform="translate(0.037)" fill="#fff"/>
        <path id="Fill_9" data-name="Fill 9" d="M17.2.044q-3.988,0-7.976.06C6.946.141,3.361-.334,1.239.482c-1.453.558-1.839,2.18,0,2.612,2.005.471,5.028-.3,7.126-.336C18.885,2.572,29.508,2.33,40.014,3c9.845.623,19.879,1.228,29.738.57.829-.055,5.06-.224,3.13-1.81-1.126-.926-5.691-.317-7.155-.361-5.163-.156-10.33-.19-15.491-.386C45.142.816,40.071.243,34.976.1,29.056-.064,23.123.044,17.2.044" transform="translate(0 22.213)" fill="#fff"/>
        <path id="face" d="M8.748,14.558h0c-3.6,0-7.536-1.73-8.2-5.6a3.6,3.6,0,0,1-.025-.686,3.065,3.065,0,0,0-.038-.738,1.426,1.426,0,0,0-.231-.431A1.131,1.131,0,0,1,0,6.558,3.007,3.007,0,0,1,1.309,4.268a10.453,10.453,0,0,0,.779-.787A9.309,9.309,0,0,1,6.245.323,4.906,4.906,0,0,1,8.039,0a8.89,8.89,0,0,1,5.234,2.029,8.236,8.236,0,0,1,3.112,4.409,6.271,6.271,0,0,1-.866,4.77A7.2,7.2,0,0,1,11,14.324,10.671,10.671,0,0,1,8.748,14.558ZM3.117,6.241h0a4.1,4.1,0,0,0,.4,3.925A6.507,6.507,0,0,0,8.8,12.613a6.127,6.127,0,0,0,3.515-1.027A3.935,3.935,0,0,0,13.9,9.53a4.058,4.058,0,0,0-.019-2.374,6.816,6.816,0,0,0-2.138-3.18A5.909,5.909,0,0,0,8.264,2.49a.9.9,0,0,1-.5.244.428.428,0,0,1-.2-.063l0,0A.466.466,0,0,0,7.335,2.6a.5.5,0,0,0-.152.026A6.093,6.093,0,0,0,5.406,3.683l-.129.1-.148.112A10.092,10.092,0,0,0,3.6,5.2s-.056.12-.123.269c-.132.29-.351.773-.363.778a.011.011,0,0,1,0-.006Z" transform="translate(6.278 4.644)" fill="#fff"/>
        <path id="Fill_13" data-name="Fill 13" d="M0,1.272a1.328,1.328,0,0,0,2.653,0A1.328,1.328,0,0,0,0,1.272" transform="translate(10.796 10.213)" fill="#fff"/>
        <path id="Fill_15" data-name="Fill 15" d="M0,1.011a1.056,1.056,0,0,0,2.108,0A1.055,1.055,0,0,0,0,1.011" transform="translate(14.115 10.134)" fill="#fff"/>
        <path id="Fill_17" data-name="Fill 17" d="M2.5.049C1.829.309.973-.229.418.125c-.982.628,0,1.2.529,1.449C3.316,2.712,3.738-.423,2.5.049" transform="translate(12.264 13.849)" fill="#fff"/>
        <path id="Fill_19" data-name="Fill 19" d="M1.074,4.909a1.2,1.2,0,0,1-.315-.043C.2,4.712-.053,4.4.009,3.932A4.922,4.922,0,0,1,1.93,1.5,5.7,5.7,0,0,1,4.853.136,1.264,1.264,0,0,1,5.03.148a4.889,4.889,0,0,1,1.93.9,4.75,4.75,0,0,0,2,.906,3.118,3.118,0,0,0,.355.02A6.034,6.034,0,0,0,12.121,1,8.238,8.238,0,0,1,14.16.115,4.665,4.665,0,0,1,15.18,0,7.842,7.842,0,0,1,18.7,1.111l.022.011a7.769,7.769,0,0,0,3.447,1.1,4.513,4.513,0,0,0,1.569-.287c.173-.063.363-.143.578-.244l.013-.005c.209-.1.42-.206.623-.309a6.2,6.2,0,0,1,2.31-.816c.066,0,.133-.006.2-.006a5.7,5.7,0,0,1,2.994,1.206c.364.234.741.476,1.116.671a2.459,2.459,0,0,0,.555.18c.44.106.856.205.913.733a.686.686,0,0,1-.123.555.758.758,0,0,1-.6.191,4.7,4.7,0,0,1-.518-.039l-.2-.021a4.592,4.592,0,0,1-2.037-.918,4.561,4.561,0,0,0-1.961-.9,2.116,2.116,0,0,0-.22-.011,6.662,6.662,0,0,0-2.622.874,8.493,8.493,0,0,1-1.982.777,5.213,5.213,0,0,1-.953.09,7.121,7.121,0,0,1-3.3-.972l-.345-.179A6.274,6.274,0,0,0,15.273,1.8a4.324,4.324,0,0,0-1.632.351c-.459.186-.9.4-1.318.6a7.445,7.445,0,0,1-3.3,1.013A4.674,4.674,0,0,1,8.248,3.7a5.921,5.921,0,0,1-1.607-.682A4.724,4.724,0,0,0,4.7,2.288a1.3,1.3,0,0,0-.141.008c-.614.068-1.137.685-1.643,1.282C2.357,4.232,1.784,4.909,1.074,4.909Z" transform="translate(26.472 8.553)" fill="#fff"/>
        <path id="Fill_21" data-name="Fill 21" d="M40.918.028C33.671.094,26.4.2,19.174.783,17.46.921-.033,2.572,0,2.691c.061.22,2.311.556,2.3.608q-.227-.564-1.04-.467c16.591,0,33.13-1.486,49.743-1.218,4.174.067,8.364.039,12.536.171,1.041.033,3.622.779,4.44.309C70.122.86,66.223.717,65.577.666,57.4.012,49.117-.054,40.918.028" transform="translate(2.852 32.834)" fill="#fff"/>
        <path id="Fill_23" data-name="Fill 23" d="M.5.542C-.58,1.628.417,5.536.46,7c.062,2.123.011,4.262.2,6.379a43.15,43.15,0,0,0,1.177,7.344c.35,1.293,1.577,3.348,2.063,1,.347-1.678-.18-3.9-.363-5.614A66.168,66.168,0,0,1,3.22,9.271c-.008-2-.047-4.013-.211-6.009C2.924,2.225,2.4-1.347.5.542" transform="translate(0.201 35.841)" fill="#fff"/>
        <path id="Fill_25" data-name="Fill 25" d="M25.322.043c-5.143.088-10.3.209-15.43.531-2.1.132-4.207.328-6.3.55C3.161,1.17-1.574,1.362.542,3.11c.955.789,4.883-.3,6.181-.416,2.182-.191,4.364-.316,6.552-.408,5.071-.215,10.157-.405,15.233-.317,9.27.161,18.481.233,27.753.026C57.579,1.965,67.9,2.241,68.251.87c.282-1.1-3.409-.6-4.081-.578C61.7.366,59.231.349,56.762.336,46.3.283,35.776-.133,25.322.043" transform="translate(2.639 56.239)" fill="#fff"/>
        <path id="Fill_27" data-name="Fill 27" d="M0,1.287c.163,4.579.943,9.152,1.192,13.745.114,2.1.248,4.2.351,6.3.033.677-.24,2.31.561,2.7,1.1.535,1.247-.543,1.453-1.271.594-2.1.192-4.838.138-7-.052-2.093-.056-4.19-.21-6.279C3.328,7.344,2.9,5.25,2.7,3.123c-.084-.9.211-2.4-.744-2.955A1.309,1.309,0,0,0,0,1.287" transform="translate(69.141 33.263)" fill="#fff"/>
        <path id="face-2" data-name="face" d="M9.507,15.083h-.08a14.988,14.988,0,0,1-6.158-1.258,6.226,6.226,0,0,1-2.325-1.87A5.054,5.054,0,0,1,0,8.96,9.675,9.675,0,0,1,2.2,3.066,8.936,8.936,0,0,1,4.623.935,6.476,6.476,0,0,1,7.6.009C7.718,0,7.841,0,7.962,0a8.285,8.285,0,0,1,2.959.575,10.423,10.423,0,0,1,2.717,1.552A10.378,10.378,0,0,1,15.785,4.4a8.2,8.2,0,0,1,1.247,2.737,5.785,5.785,0,0,1-1.02,5.1,7.223,7.223,0,0,1-2.839,2.107,9.377,9.377,0,0,1-3.665.74h0Zm-2.024-13A5.614,5.614,0,0,0,3.407,4.137,7.25,7.25,0,0,0,1.724,8.473,3.788,3.788,0,0,0,2.75,11.364,6.135,6.135,0,0,0,5.758,12.92a15.056,15.056,0,0,0,3.545.387l.241,0a6.292,6.292,0,0,0,4.914-2.153,4,4,0,0,0,.593-3.575,6.214,6.214,0,0,0-1.2-2.234,10.7,10.7,0,0,0-1.845-1.779A6.316,6.316,0,0,0,8.922,2.393a13.582,13.582,0,0,1-1.438-.307Z" transform="translate(6.742 38.724)" fill="#fff"/>
        <path id="Fill_31" data-name="Fill 31" d="M0,1.023a1.068,1.068,0,0,0,2.133,0A1.067,1.067,0,0,0,0,1.023" transform="translate(10.089 44.211)" fill="#fff"/>
        <path id="Fill_33" data-name="Fill 33" d="M0,1.031a1.076,1.076,0,0,0,2.15,0,1.076,1.076,0,0,0-2.15,0" transform="translate(14.563 43.611)" fill="#fff"/>
        <path id="Fill_35" data-name="Fill 35" d="M.247.179C-1.142,1.565,3.735,4,4.886,2.067,5.83.483,3.773,1.008,3.044.923,2.252.829.893-.466.247.179" transform="translate(11.85 47.541)" fill="#fff"/>
        <path id="Fill_37" data-name="Fill 37" d="M1.057,4.873h0A1.022,1.022,0,0,1,.289,4.6,1.388,1.388,0,0,1,0,3.558C.064,1.9,4.639.341,6.083.07A4.083,4.083,0,0,1,6.833,0,6.859,6.859,0,0,1,9.9.972l.013.007a6.911,6.911,0,0,0,3.116.979,4.291,4.291,0,0,0,.934-.1,12.2,12.2,0,0,0,1.694-.559A8.8,8.8,0,0,1,18,.633c.131-.012.259-.018.382-.018a4.05,4.05,0,0,1,2.334.824,8.668,8.668,0,0,0,1.315.71,2.407,2.407,0,0,0,.948.188,5.4,5.4,0,0,0,.689-.058l.016,0a5.756,5.756,0,0,1,.736-.059c.07,0,.14,0,.208.007.7.044,1.139.279,1.211.644.079.4-.306.857-1,1.2a3.326,3.326,0,0,1-1.475.377,4.491,4.491,0,0,1-2.3-.85,5.594,5.594,0,0,0-2.272-.919,3.446,3.446,0,0,0-.367-.019,7.975,7.975,0,0,0-2.964.819l-.047.02a8.285,8.285,0,0,1-3.1.838c-.058,0-.115,0-.172,0a7.419,7.419,0,0,1-2.816-.824,6.011,6.011,0,0,0-2.488-.717,3.772,3.772,0,0,0-1.439.3c-.173.07-.452.223-.806.416A9.359,9.359,0,0,1,1.057,4.873Z" transform="translate(26.693 42.342)" fill="#fff"/>
        <path id="point" d="M3.473,6.493h0a3.139,3.139,0,0,1-2.15-.99A4.549,4.549,0,0,1,.08,3.288,2.937,2.937,0,0,1,.211,1.494,2.669,2.669,0,0,1,1.625.13,1.6,1.6,0,0,1,2.293,0,5.316,5.316,0,0,1,5.3,1.3a2.835,2.835,0,0,1,.883,2.167,3.23,3.23,0,0,1-1.094,2.4A2.467,2.467,0,0,1,3.473,6.493ZM2.457,2.033a1.346,1.346,0,0,0-.126,1.43c.215.544.6.895.983.895a.659.659,0,0,0,.143-.016c.4-.088.617-.246.653-.469.116-.719-1.636-1.83-1.654-1.84Z" transform="translate(58.21 41.714)" fill="#fff"/>
        <path id="Fill_41" data-name="Fill 41" d="M19.72.017c-5.022,0-10.088-.1-15.1.194C3.773.261.558.1.123.982c-.8,1.614,2.513.813,2.993.764,9.986-1,20.417-.424,30.435-.14,8.194.233,16.344.378,24.528.8q3.227.167,6.45.363c.7.042,2.464.507,2.612-.612.137-1.036-2.063-.8-2.612-.831Q57.974.982,51.424.61C40.908.017,30.252.015,19.72.017" transform="translate(2.336 67.705)" fill="#fff"/>
        <path id="Fill_43" data-name="Fill 43" d="M.726.516c-.938.932-.5,4.493-.524,5.67C.155,8.244.058,10.3.015,12.359c-.045,2.151.018,4.311.145,6.459.053.9.793,5.26,1.959,2.766.521-1.115-.013-4.219,0-5.481.014-2.3.138-4.587.252-6.882.1-1.973.1-3.948.188-5.921C2.582,2.67,2.656-1.42.726.516" transform="translate(1.572 69)" fill="#fff"/>
        <path id="Fill_45" data-name="Fill 45" d="M68.855,0C63.968.505,59,.268,54.1.638c-4.228.319-8.452.449-12.691.539-9.6.2-19.214.4-28.785,1.2-2.181.182-4.36.376-6.547.473C4.979,2.9.39,2.4.048,3.555-.534,5.518,4.374,4.741,5.433,4.711c2.328-.067,4.645-.236,6.967-.412,9.759-.743,19.555-.966,29.335-1.275,5.319-.168,10.6-.557,15.908-.911,2.645-.176,5.3-.182,7.943-.353.692-.045,3.142.044,3.64-.513C69.566.863,69.653-.07,68.855,0" transform="translate(1.467 87.897)" fill="#fff"/>
        <path id="Fill_47" data-name="Fill 47" d="M0,1.432C.169,6.119.434,10.8.592,15.488.64,16.9.214,19.424,1,20.666c1.262,2,2.247-.117,2.478-1.362.729-3.931-.055-8.273-.258-12.227C3.141,5.569,3.609,2.21,2.88.86,2.185-.426-.061-.3,0,1.432" transform="translate(68.664 68.419)" fill="#fff"/>
        <path id="hola_:_" data-name="hola :)" d="M3.668,8.246a3.928,3.928,0,0,1-1.275-.233A3.493,3.493,0,0,1,.981,7.059,3.9,3.9,0,0,1,.124,5.585,2.935,2.935,0,0,1,.419,3.293,4.29,4.29,0,0,0,.844,1.932,2.388,2.388,0,0,0,.8,1.442,1.563,1.563,0,0,1,.875.352C1.043.13,1.451.023,2.123.023c.247,0,.487.014.7.025.108.006.21.012.294.014A3.037,3.037,0,0,1,3.717,0a2.558,2.558,0,0,1,2.2,1.288,5.384,5.384,0,0,1,.764,2.834A4.772,4.772,0,0,1,5.538,7.475,2.544,2.544,0,0,1,3.668,8.246ZM3.641,1.681h0A4.116,4.116,0,0,0,1.846,5.549,1.29,1.29,0,0,0,3.257,6.592a2.97,2.97,0,0,0,.417-.031,1.52,1.52,0,0,0,1.068-.686A2.678,2.678,0,0,0,5.147,4.55,3.7,3.7,0,0,0,4.81,2.763,1.927,1.927,0,0,0,3.641,1.681Z" transform="translate(56.819 74.844)" fill="#fff"/>
        <path id="Fill_51" data-name="Fill 51" d="M7.327,14.934h0a7.285,7.285,0,0,1-6.1-3.353A6.15,6.15,0,0,1,1.085,5.4a.716.716,0,0,1-.43.186c-.38,0-.565-.508-.642-.81-.12-.474.63-1.306,1.126-1.856.114-.126.212-.236.28-.319C2.492,1.288,3.753.063,5.706,0c.068,0,.137,0,.205,0A7.113,7.113,0,0,1,10.4,1.713a9.708,9.708,0,0,1,2.9,4.045,7.7,7.7,0,0,1,.455,3.965,5.839,5.839,0,0,1-1.957,3.5A6.7,6.7,0,0,1,7.327,14.934ZM5.578,3.428A1.669,1.669,0,0,0,5.1,3.48a3.86,3.86,0,0,0-1.84,1.45A6.613,6.613,0,0,0,2.219,7.065,4.963,4.963,0,0,0,2.6,10.912,4.873,4.873,0,0,0,5.7,13.1a6.341,6.341,0,0,0,1.595.207,5.074,5.074,0,0,0,2.829-.8,4.272,4.272,0,0,0,1.744-2.443A5.439,5.439,0,0,0,11.159,5.4,9.092,9.092,0,0,0,7.4,2.35l.033.282.033.282c-.13.472-.621.536-1.085.536-.137,0-.282-.006-.41-.012H5.96C5.826,3.433,5.7,3.428,5.578,3.428Zm.106-1.652a3.512,3.512,0,0,0-2.153.813A4.374,4.374,0,0,1,5.684,1.776Z" transform="translate(6.081 70.371)" fill="#fff"/>
        <path id="Fill_53" data-name="Fill 53" d="M0,.675a.7.7,0,0,0,1.4,0,.7.7,0,0,0-1.4,0" transform="translate(10.054 75.976)" fill="#fff"/>
        <path id="Fill_55" data-name="Fill 55" d="M0,.686a.71.71,0,0,0,1.419,0A.71.71,0,0,0,0,.686" transform="translate(12.438 76.119)" fill="#fff"/>
        <path id="Fill_57" data-name="Fill 57" d="M3.749,0C3.085.057.654-.169.228.413c-.713.972.425,1.006.984,1.111.5.095,2.692.041,3-.406C4.484.723,4.421-.054,3.749,0" transform="translate(9.771 80.013)" fill="#fff"/>
        <path id="Fill_59" data-name="Fill 59" d="M.9,4.86h0c-.35,0-.621-.241-.826-.736-.429-1.038,1.166-2.393,1.69-2.838A3.379,3.379,0,0,1,4.033.337a4.505,4.505,0,0,1,1.362.24c.386.123.711.261,1.024.4a4.19,4.19,0,0,0,1.725.46,3.518,3.518,0,0,0,.827-.105,12.018,12.018,0,0,0,1.7-.594,8.3,8.3,0,0,1,2.494-.72c.1-.008.21-.012.315-.012a8.177,8.177,0,0,1,2.786.664,12.327,12.327,0,0,0,1.85.57,6.355,6.355,0,0,0,1.234.124,8.079,8.079,0,0,0,2.889-.63A7.567,7.567,0,0,1,24.964.1a6.144,6.144,0,0,1,1.882.323c.085.027.252.074.463.133,1.078.3,3.322.934,3.429,1.32a.813.813,0,0,1-.051.719A.82.82,0,0,1,30,2.84,6.853,6.853,0,0,1,28.083,2.4h0l-.1-.034c-.259-.087-.507-.177-.748-.264a7.528,7.528,0,0,0-2.6-.613,4.355,4.355,0,0,0-1.209.174c-.457.13-.883.271-1.3.407a10.3,10.3,0,0,1-3.33.7,6.991,6.991,0,0,1-.925-.063,10.566,10.566,0,0,1-1.786-.46,7.892,7.892,0,0,0-2.366-.5h-.028a7.442,7.442,0,0,0-2.844.795A10.878,10.878,0,0,1,8.9,3.235a3.154,3.154,0,0,1-.667.071A5.87,5.87,0,0,1,6.352,2.9L6.3,2.882a5.456,5.456,0,0,0-1.735-.39,2.491,2.491,0,0,0-.421.035,3.651,3.651,0,0,0-1.3,1C2.211,4.153,1.49,4.86.9,4.86Z" transform="translate(20.455 76.812)" fill="#fff"/>
      </g>
      <g id="Big_Cards" data-name="Big Cards" transform="translate(216.618)" opacity="0.5">
        <path id="Fill_67" data-name="Fill 67" d="M2.694,52.88h0a9.39,9.39,0,0,1-1.082-.059c-.75-.087-1.175-.249-1.338-.508C.1,52.031.227,51.651.392,51.17a6.89,6.89,0,0,0,.252-.861,14.153,14.153,0,0,0-.165-4.39c-.111-.823-.217-1.6-.245-2.3C-.153,34.05.015,24.457.2,16.218c.045-1.984.1-4,.156-5.951q.018-.65.036-1.3c0-.161.01-.325.015-.491A18.422,18.422,0,0,0,.377,5.893,1.975,1.975,0,0,0,.205,5.3C.07,4.988-.027,4.759.377,4.23c.529-.689,1.9-.777,3.03-.777.36,0,.722.01,1.093.021l.075,0c.326.01.634.019.909.019.24,0,.432-.007.586-.022C8.277,3.26,10.324,3.105,12.328,3c6.306-.332,12.706-.759,18.9-1.172C44.68.93,58.593,0,72.345,0h1.221A32.942,32.942,0,0,1,80.84.572,11.577,11.577,0,0,0,82.353.85a1.947,1.947,0,0,0,.2.01c.094,0,.185-.005.274-.01h0c.086,0,.175-.01.263-.01a1.37,1.37,0,0,1,.547.1A2.069,2.069,0,0,1,84.858,2.48a8.643,8.643,0,0,1-.221,3.43c-.114.61-.222,1.185-.262,1.684-.169,2.1-.248,4.388-.241,6.988q0,.407,0,.815a94.559,94.559,0,0,0,.52,11.818c.125.975.265,1.96.4,2.913.365,2.578.743,5.242.868,7.913.043.9.076,1.819.108,2.706v.007c.045,1.263.092,2.569.168,3.854.013.221.012.449.011.691a5.675,5.675,0,0,0,.109,1.4,1.047,1.047,0,0,0,.381.543.625.625,0,0,1,.228.288c.159.639.212,1.066.014,1.352-.183.264-.56.407-1.285.612a33.9,33.9,0,0,1-9.016.906c-.613,0-1.214,0-1.8-.009h-.173c-.536,0-1.042-.007-1.552-.007h-.083c-10.344.006-19.667.031-29.014.286-2.839.078-5.732.123-8.531.166-6.654.1-13.534.21-20.26.764-1.58.13-3.185.287-4.738.438l-1.852.179c-.671.064-1.377.168-2.124.278A27.041,27.041,0,0,1,2.694,52.88ZM30.746,17.246a13.558,13.558,0,0,1,6.954,2.3,50.868,50.868,0,0,1,6.021,4.5l.295.245c.682.566,1.367,1.145,2.03,1.7,1.5,1.269,3.054,2.581,4.642,3.8l.312.239.054.041c1.345,1.033,2.735,2.1,4.179,3.033a3.572,3.572,0,0,0,1.878.736A4.709,4.709,0,0,0,59.5,32.751c.354-.235.708-.474,1.051-.706A39.1,39.1,0,0,1,64.9,29.379a13.354,13.354,0,0,1,4.9-1.444c.335-.028.681-.042,1.029-.042,2.2,0,5.821.569,10.631,3.281A87.066,87.066,0,0,1,80.214,8.64c.086-1.291.229-2.589.371-3.8.014-.117.054-.3.1-.512a3.3,3.3,0,0,0,.141-1.449c-.265-.524-1.229-.591-2.038-.591-.217,0-.428,0-.661.011h-.035c-.2.005-.392.01-.564.01-.076,0-.142,0-.2,0-.993-.031-2.017-.046-3.132-.046-2.524,0-5.092.08-7.575.157-1.129.035-2.294.071-3.439.1C52.965,2.77,42.273,3.337,31.4,4.2c-4.042.322-8.157.554-12.136.779-4.645.262-9.446.533-14.159.949-1.753.154-1.754.3-1.765,1.72,0,.166,0,.355-.007.561-.011.477-.023.962-.035,1.431v0l-.007.285c-.063,2.459-.131,5.081-.22,7.729-.111,3.294-.288,6.639-.459,9.874-.1,1.871-.2,3.8-.29,5.707,2.65-1.621,5.213-3.471,7.693-5.26,2.389-1.724,4.859-3.506,7.408-5.085,3.673-2.276,7.3-4.4,11.247-5.4A8.52,8.52,0,0,1,30.746,17.246Z" fill="#fff"/>
        <path id="Fill_69" data-name="Fill 69" d="M.038,1.2C.037,2.653-.19,4.8.48,6.17c.851,1.738,1.915,1.195,2.2-.438A14.824,14.824,0,0,0,2.534,1.2C2.109.025.038-.774.038,1.2" transform="translate(61.197 8.743)" fill="#fff"/>
        <path id="Fill_71" data-name="Fill 71" d="M6.747.01C5.381.059,1.4-.269.479.829-1.106,2.713,1.653,3.046,2.838,2.941c1.371-.122,5.608.176,6.527-.924C10.9.178,7.821-.029,6.747.01" transform="translate(56.93 10.492)" fill="#fff"/>
        <path id="Fill_73" data-name="Fill 73" d="M8.147,13.909h0A8.688,8.688,0,0,1,3.437,12.4,7.8,7.8,0,0,1,.348,8.7,6.231,6.231,0,0,1,.907,3.43,7.052,7.052,0,0,1,2.855,1.278,6.462,6.462,0,0,1,5.583.127,9.252,9.252,0,0,1,7.115,0a8.475,8.475,0,0,1,4.25,1.085,6.152,6.152,0,0,1,2.793,3.328,6.952,6.952,0,0,1,.349,2.677A8.343,8.343,0,0,1,13.884,9.8,7.537,7.537,0,0,1,12.4,12.1a5.775,5.775,0,0,1-2.245,1.475A6,6,0,0,1,8.147,13.909ZM7.622,2.953a6.5,6.5,0,0,0-2.85.7,4.316,4.316,0,0,0-2.05,2,2.7,2.7,0,0,0,0,2.211,6.9,6.9,0,0,0,3.807,3.179,4.686,4.686,0,0,0,1.632.317,3.317,3.317,0,0,0,2.531-1.125,4.413,4.413,0,0,0,1.066-2.568,4.246,4.246,0,0,0-3.684-4.7C7.926,2.96,7.775,2.953,7.622,2.953Z" transform="translate(2.603 56.132)" fill="#fff"/>
        <path id="Fill_75" data-name="Fill 75" d="M24.412.012c-1.495.124-2.787,1.171-4.291,1.356A9.313,9.313,0,0,1,16.231.676,8.5,8.5,0,0,0,11.553.419C10.31.735,9.083,1.581,7.792,1.683c-2.541.2-5.494-2.7-7.478.58-.951,1.572.43,2.585,1.852,1.851,1.483-.764.755-1.038,2.594-.586a7.031,7.031,0,0,0,4.313.053C10.466,3.1,11.689,2.23,13.2,2.132c1.482-.1,2.771.579,4.188.87a9.179,9.179,0,0,0,4.935-.459c1.57-.519,2.2-.8,3.781-.34,1,.293,3.2,1.226,4.171.474,1.689-1.3-.572-1.489-1.462-1.673-1.433-.3-2.916-1.114-4.4-.992" transform="translate(20.298 60.164)" fill="#fff"/>
        <path id="Fill_77" data-name="Fill 77" d="M5.734,10.659h0A5.491,5.491,0,0,1,1.845,9.084,6.086,6.086,0,0,1,.053,5.554a4.905,4.905,0,0,1,.65-3.3A5.285,5.285,0,0,1,3.876.035,1.124,1.124,0,0,1,4.174,0,8.732,8.732,0,0,1,7.568,1.268,5.7,5.7,0,0,1,9.834,3.962a5.71,5.71,0,0,1,.36,2.383,5.252,5.252,0,0,1-.652,2.274,3.824,3.824,0,0,1-2.757,1.95A6.338,6.338,0,0,1,5.734,10.659ZM4.182,3.289A1.5,1.5,0,0,0,3,5.047a3.158,3.158,0,0,0,.979,1.7,2.7,2.7,0,0,0,1.77.8l.086,0c.86-.042,1.337-.439,1.343-1.119a3.234,3.234,0,0,0-.945-2A3.233,3.233,0,0,0,4.182,3.289Z" transform="translate(73.272 55.708)" fill="#fff"/>
        <path id="Image_Border" data-name="Image Border" d="M.611,44.319C.123,43.143.8,42.6,1.793,42.355a13.089,13.089,0,0,1-.1-2.609c-.054-1.5-.072-3-.13-4.5-.138-3.573-.229-7.167-.5-10.732C.791,21.1.126,17.8.107,14.367.094,12.045-.551,6.161,1.483,4.584c3.5-2.039,2.113,5.156,2.055,6.4a74.289,74.289,0,0,0,.439,11.059,73.01,73.01,0,0,1-.185,10.229c-.07,1.813-.109,3.623-.245,5.433a31.97,31.97,0,0,1-.273,4.462c.45-.019.887-.015,1.252-.011.254,0,.473.005.639,0C8,42.073,10.828,42,13.659,41.891c10.89-.409,21.785-.224,32.673-.741,10.3-.489,20.634-.593,30.939-.719A1.045,1.045,0,0,1,78,42.182c-.566.711-3.191.556-4.009.622-2.9.233-5.8.338-8.711.366-6.131.058-12.239.321-18.359.67-10.875.62-21.767.569-32.648,1.012-2.641.107-5.283.187-7.925.257-.707.019-1.994.244-3.181.244C2.01,45.352.952,45.139.611,44.319Zm78.663-9.561q-.344-5.95-.876-11.9c-.58-6.4-1.076-12.643-1.072-19.066A1.448,1.448,0,0,1,79.968,3c.775.992.276,3.994.3,5.181.062,3.91.432,7.8.783,11.69.348,3.86.595,7.722.864,11.588.124,1.787,1.5,8.918-.5,9.959a1.329,1.329,0,0,1-.609.172C78.946,41.593,79.339,35.881,79.274,34.758ZM1.562,4.07C.91,3.8.382,3.43.741,2.639c.295-.65,1.345-.593,2.141-.535.247.018.469.035.638.032,2.569-.05,5.133-.194,7.7-.351C17.04,1.429,22.85,1.013,28.685.913,39.8.723,50.908.111,62.032.008c3.295-.031,6.571.027,9.861.216,1.459.084,2.918.164,4.378.226.269.011.648-.009,1.063-.03A5.946,5.946,0,0,1,79.781.6c2.9,1.537-3.012,1.705-3.732,1.693-3.019-.051-6.031-.286-9.049-.36-11.1-.273-22.284.4-33.375.857-5.335.219-10.667.25-16,.55-2.915.164-5.829.351-8.744.5-1.344.071-2.689.139-4.035.173-.572.015-1.552.182-2.357.182A2.571,2.571,0,0,1,1.562,4.07Z" transform="translate(1.143 75.575)" fill="#fff"/>
        <path id="Image_X" data-name="Image X" d="M1.265,25.6C.555,25.588.077,25.437,0,24.577c-.094-1.1,1.676-1.551,2.391-1.908q3.678-1.839,7.395-3.6c4.915-2.344,9.876-4.6,14.854-6.8l.086-.038q-4.142-1.4-8.305-2.739c-1.586-.51-12.705-3.254-12.3-4.727C4.581,3.11,14.429,7,15.944,7.485q5.594,1.783,11.147,3.688C35.969,7.185,44.94,2.935,54.2.033c.583-.182.952.419.819.923-.177.675-2.254,1.222-2.831,1.479-2.28,1.019-4.572,2.012-6.853,3.031-4.968,2.22-9.946,4.419-14.913,6.641l-.292.131q5.239,1.862,10.423,3.874c1.85.715,3.691,1.452,5.537,2.178.925.363,4.77,1.274,4.991,2.2.312,1.3-3.786-.3-4.439-.506-1.842-.589-3.661-1.248-5.48-1.9-4.07-1.466-8.123-2.979-12.209-4.4l-1.147-.4Q21.3,16.2,14.827,19.192q-3.47,1.607-6.909,3.279c-1.687.817-4.727,3.134-6.605,3.134Z" transform="translate(14.698 85.496)" fill="#fff"/>
        <path id="Fill_117" data-name="Fill 117" d="M6.794,12.837a6.589,6.589,0,0,1-4.172-1.329A4.43,4.43,0,0,1,1.131,9.327a5,5,0,0,1-.107-2.062,1.364,1.364,0,0,1-.2.016A.9.9,0,0,1,.01,6.808c-.156-1.93,1.612-3.619,2.679-4.454A11.463,11.463,0,0,1,7.641.04,5.045,5.045,0,0,1,8.271,0a5.486,5.486,0,0,1,3.973,1.812,6.584,6.584,0,0,1,1.826,4.77,6.256,6.256,0,0,1-1.914,4.266,7.342,7.342,0,0,1-4.3,1.928A9.328,9.328,0,0,1,6.794,12.837Zm1.521-10.8a1,1,0,0,0-1.083.6,1.72,1.72,0,0,1-.819.8,1.4,1.4,0,0,1-.595.081,1.664,1.664,0,0,0-.734.112A3.631,3.631,0,0,0,3.748,5.149l-.034.057A4.276,4.276,0,0,0,3.207,9.2,3.469,3.469,0,0,0,6.052,11,6.811,6.811,0,0,0,7,11.07a5.994,5.994,0,0,0,3.485-1.052A4.308,4.308,0,0,0,12.3,6.911a4.441,4.441,0,0,0-.867-3.135A4.374,4.374,0,0,0,8.675,2.053C8.544,2.041,8.423,2.036,8.315,2.036Z" transform="translate(3.316 123.608)" fill="#fff"/>
        <path id="Fill_119" data-name="Fill 119" d="M4.235.51C2.992,1.169,1.025,2.181.3,3.432-.474,4.754.323,6.2,1.946,5.575,3.234,5.078,4.053,3.5,5.428,3c1.213-.446,1.7-.219,2.983.226a9.222,9.222,0,0,0,3.9.788c1.794-.141,3.348-1.181,5.1-1.418,1.479-.2,2.7.376,4.114.6,1.643.265,2.717-.356,4.254-.68,1.046-.22,2.889.676,3.651.341,1.715-.754-.1-1.676-1.049-1.98-1.6-.513-2.583-.06-4.1.365-1.651.462-2.365.115-3.943-.309-3.194-.858-5.661,1.217-8.689.84C8.85,1.422,7.173-1.046,4.235.51" transform="translate(20.141 127.312)" fill="#fff"/>
        <path id="Fill_121" data-name="Fill 121" d="M5.342,9.82h0a7.019,7.019,0,0,1-2.4-.42A5.043,5.043,0,0,1,.976,8.14,3.636,3.636,0,0,1,.014,5.277,4.849,4.849,0,0,1,1.955,1.648,9.253,9.253,0,0,1,5.855.085,4.515,4.515,0,0,1,6.709,0,3.3,3.3,0,0,1,9.387,1.294a5.113,5.113,0,0,1,1,2.956A5.953,5.953,0,0,1,9.348,7.886,4.571,4.571,0,0,1,5.865,9.8C5.693,9.814,5.517,9.82,5.342,9.82ZM6.668,2.4A5.033,5.033,0,0,0,2.942,3.816,2.544,2.544,0,0,0,2.305,5.74a2.009,2.009,0,0,0,.921,1.354,3.6,3.6,0,0,0,2.034.675,2.934,2.934,0,0,0,1.679-.522A2.9,2.9,0,0,0,7.99,5.927,2.824,2.824,0,0,0,8.1,4.2,3.666,3.666,0,0,0,7,2.414C6.89,2.408,6.78,2.4,6.668,2.4Z" transform="translate(69.606 123.874)" fill="#fff"/>
      </g>
      <path id="Fill_79" data-name="Fill 79" d="M13.873,0C10.309.055,1.508,1.028.2,4.194c-.993,2.4,1.957,1.875,3.538,1A17.663,17.663,0,0,1,10.4,2.945C20.5,1.574,30.2,6.491,40.2,7.113c3.788.236,8.359.389,11.976-.532,2.576-.656,2.912-2.086-.028-2.3-2.5-.185-5.261.4-7.821.382C33.734,4.59,24.316-.146,13.873,0" transform="translate(401.305 15.811)" fill="#c1dee2" opacity="0.5"/>
      <g id="Cards" transform="translate(0 175.098)" opacity="0.5">
        <path id="Fill_173" data-name="Fill 173" d="M27.814.017Q21.221.091,14.639.506c-4.172.264-8.7.064-12.8.872C.671,1.608-.9,2.67.647,3.838c1.089.821,5.074-.123,6.374-.2C11.81,3.34,16.6,2.988,21.4,2.818c4.54-.16,9.081-.217,13.623-.262a10.337,10.337,0,0,1,2.535-.028c.992.289.757.368.831,1.628.135,2.282.1,4.573.052,6.857-.044,2.211-.126,4.421-.118,6.633.006,1.578-.5,4.713.293,6.084,1.14,1.972,2.322-.17,2.407-1.481.163-2.507.09-5.045.091-7.555,0-2.356.017-4.712-.066-7.067-.06-1.7.183-4.671-.733-6.217C39.381-.165,37.134.174,35.494.1c-2.558-.118-5.12-.109-7.68-.083" transform="translate(0.869 0)" fill="#fff"/>
        <path id="Fill_171" data-name="Fill 171" d="M.717,1.337c0,4.427-.507,8.824-.651,13.246a22.647,22.647,0,0,0,.315,6.261c.519,2.015,2.168,2.452,2.358.2.385-4.555.29-9.279.59-13.871.106-1.621.794-4.592.151-6.111C2.914-.272.714-.529.717,1.337" transform="translate(0 1.522)" fill="#fff"/>
        <path id="Fill_175" data-name="Fill 175" d="M40.756.007c-7.634,1.011-15.614.642-23.3.8-3.688.076-7.376.081-11.065.12C5.1.94,1.832.451.718,1.174-1.055,2.327.869,3.216,2.043,3.241c7.28.16,14.641-.175,21.919-.414,3.27-.107,6.551-.16,9.813-.438a34.586,34.586,0,0,0,6.152-.876c.415-.115,1.32-.091,1.413-.658.057-.35-.047-.922-.583-.848" transform="translate(1.179 22.366)" fill="#fff"/>
        <path id="Fill_177" data-name="Fill 177" d="M9.584.224C7.462.236,1.069-.749.19,1.32-.981,4.079,3.588,3.435,4.817,3.4c2.791-.072,5.58-.079,8.372-.078,2.739,0,5.479-.016,8.218-.082.793-.019,2.64.31,3.1-.645A1.2,1.2,0,0,0,23.937.915C22.4-.011,18.4.526,16.6.443,14.262.335,11.92.224,9.584.224" transform="translate(0.609 28.584)" fill="#fff"/>
        <path id="Fill_179" data-name="Fill 179" d="M5.5.138C4.288.21,1.835-.29.749.265-.485.9-.05,1.883,1.015,2.317A10.48,10.48,0,0,0,5.5,2.112C6.25,1.749,7.1.04,5.5.138" transform="translate(30.503 29.18)" fill="#fff"/>
        <path id="Fill_181" data-name="Fill 181" d="M1.068,0C-.227.36.166,7.711.132,8.877c-.091,3.193-.45,7.209.611,10.284.677,1.96,1.976,1.695,1.755-.369-.194-1.811-.528-3.6-.673-5.426A84.343,84.343,0,0,1,1.363.711c.131.24,1.36,2.465,1.649,2.3C2.924,3.062,1.595-.135,1.068,0" transform="translate(48.228 3.29)" fill="#fff"/>
        <path id="Fill_183" data-name="Fill 183" d="M16.4.04C13.775.079,11.154.125,8.534.2,6.451.256,3.178-.086,1.267.79c-2.275,1.043-1.2,3.368.941,3.417,1.89.044,3.906-.383,5.813-.448,5.152-.176,10.312-.214,15.466-.258,4.661-.04,9.521.457,14.141-.243.685,6.085-1.168,12.2-.538,18.352.1.955.054,2.305,1.271,2.523,1.535.275,1.6-1.246,1.657-2.335.166-3.109.076-6.221.3-9.335A45.3,45.3,0,0,0,40.6,3.739C40.166.183,38.462.468,35.449.32,29.087.008,22.764-.053,16.4.04" transform="translate(47.467 0.546)" fill="#fff"/>
        <path id="Fill_185" data-name="Fill 185" d="M4.739.075C3.4.109,1.185-.3.33.978-.561,2.31.5,3.472,1.79,3.746c1.532.324,3.53-.12,5.121-.125,1.656,0,3.313.014,4.969.02,7.1.028,14.231.135,21.327-.158.991-.041,3.8.291,4.489-.659.609-.843.183-1.6-.619-2.029C35.762.09,33.061.358,31.6.3,29.792.234,27.983.211,26.176.183,19.042.073,11.871-.1,4.739.075" transform="translate(50.341 22.119)" fill="#fff"/>
        <path id="Fill_187" data-name="Fill 187" d="M9.981,0A61.516,61.516,0,0,0,1.858.332C-.455.686-.74,2.922,1.75,3.184a46.833,46.833,0,0,0,7.362-.357c.817-.053,1.766.022,2.158-.881A1.451,1.451,0,0,0,9.981,0" transform="translate(51.105 28.354)" fill="#fff"/>
        <path id="Fill_189" data-name="Fill 189" d="M6.423.184C5,.219.862-.39.16,1.23-1.01,3.926,4.6,2.9,5.674,2.862c1.356-.05,6.641.742,6.642-1.417C12.317-.671,7.721.152,6.423.184" transform="translate(74.751 28.404)" fill="#fff"/>
        <path id="Fill_191" data-name="Fill 191" d="M.1,1.671c0,4.906-.3,9.858.146,14.752.185,2.024.153,5.9,1.326,7.617.832,1.218,1.986,1.133,2.441-.33.3-.978-.182-2.933-.236-3.979-.052-1-.113-2.007-.16-3.011C3.5,14.134,3.5,11.551,3.54,8.963c.03-2.22.565-5.157.061-7.292C3.132-.318.1-.784.1,1.671" transform="translate(0.389 40.318)" fill="#fff"/>
        <path id="Fill_193" data-name="Fill 193" d="M48.488.166C39.977.379,31.446.189,22.942.61,18.747.818,14.57,1.274,10.4,1.729c-2.05.224-4.1.454-6.146.706C3.633,2.511-1.5,2.71.432,4.662c.843.852,3.525-.038,4.586-.164,2.055-.243,4.114-.454,6.171-.672C15.1,3.412,19.025,3.02,22.958,2.8c9.261-.513,18.561-.359,27.831-.7,2.508-.092,5.008-.159,7.516-.06.659.026,5.5.272,3.4-1.516C60.709-.321,56.962.116,55.72.09,53.31.04,50.9.105,48.488.166" transform="translate(1.305 37.508)" fill="#fff"/>
        <path id="Wireframy_Stuff" data-name="Wireframy Stuff" d="M0,29.235c-.2-2.788,6.8-2.784,8.8-2.97a244.143,244.143,0,0,1,25.935-.51c4.166.058,8.325.185,12.488-.069s8.459-.187,12.587-.635a39.771,39.771,0,0,1-.6-6.746c-.383-5.408-.28-10.835-.527-16.249-.108-2.385,3.14-2.747,4.1-.816.973,1.95.341,5.819.4,7.982.146,5.006,1.074,10.61.093,15.561-.341,1.722-1.794,2.627-2.76,1.688l0,.006c-.363.536-1.5.535-2.329.534-.23,0-.437,0-.6.01-2.284.155-4.525.417-6.789.757a109,109,0,0,1-13.54,1.2c-9.017.223-18.071.015-27.074.632a49.429,49.429,0,0,0-5.919.747,13.626,13.626,0,0,1-2.486.407C.862,30.769.089,30.441,0,29.235Z" transform="translate(2.527 37.084)" fill="#fff"/>
        <path id="Fill_199" data-name="Fill 199" d="M1.738.345a1.756,1.756,0,0,0-1.6,2.389c.647,1.572,2.573.958,3.845.858,4.044-.317,8.266.316,12.261-.161,1.091-.13,2.674-.725,1.694-2.191-.736-1.1-3.419-.908-4.56-1.014A60.834,60.834,0,0,0,1.738.345" transform="translate(66.548 40.543)" fill="#fff"/>
        <path id="Fill_201" data-name="Fill 201" d="M6.072.056C4.5.162.853.079.192,1.863-.994,5.064,3.65,3.936,5.063,3.754c1.642-.212,5.514.355,6.388-1.238,1.564-2.848-4-2.555-5.38-2.46" transform="translate(69.039 47.688)" fill="#fff"/>
        <path id="Fill_203" data-name="Fill 203" d="M.558.691a2.057,2.057,0,0,0,0,2.818c.912.911,2.9.722,4.1.789,1.672.093,6.474.978,7.3-.991C13.081.651,8.733.706,7.3.555,5.649.381,1.928-.679.558.691" transform="translate(70.52 54.078)" fill="#fff"/>
        <path id="Fill_205" data-name="Fill 205" d="M0,2.146C0,5,4.46,5,4.46,2.146,4.46-.694,0-.737,0,2.146" transform="translate(12.471 7.156)" fill="#fff"/>
        <path id="Fill_207" data-name="Fill 207" d="M0,2.452c0,3.265,5.08,3.258,5.08,0S0-.834,0,2.452" transform="translate(20.931 6.883)" fill="#fff"/>
        <path id="Fill_209" data-name="Fill 209" d="M1.106.044C-1.364.726.911,2.819,2.058,3.3c1.822.76,4.309,1.32,6.132.181.725-.453,1.314-1.056.783-1.936-.566-.937-1.342-.52-2.2-.434A6.762,6.762,0,0,1,3.739.851C2.952.589,1.964-.192,1.106.044" transform="translate(14.707 13.632)" fill="#fff"/>
        <path id="Fill_211" data-name="Fill 211" d="M0,1.449a1.5,1.5,0,0,0,3,0,1.5,1.5,0,0,0-3,0" transform="translate(60.606 8.035)" fill="#fff"/>
        <path id="Fill_213" data-name="Fill 213" d="M0,1.61a1.667,1.667,0,0,0,3.332,0A1.667,1.667,0,0,0,0,1.61" transform="translate(67.239 8.165)" fill="#fff"/>
        <path id="Fill_215" data-name="Fill 215" d="M7.12.094C5.37.319.308.832.024,2.99c-.437,3.328,5.11.635,6.376.373a18.348,18.348,0,0,1,4.662-.181c.884.035,2.059.179,1.967-1.168C12.877-.2,8.65-.1,7.12.094" transform="translate(59.872 14.338)" fill="#fff"/>
        <path id="Fill_217" data-name="Fill 217" d="M2.3.043C1.03.382-.629,2.575.243,3.917c1.431,2.2,2.062-1.179,2.661-1.5,1.09-.592,1.974,1.571,3.113.436C7.815,1.059,3.43-.26,2.3.043" transform="translate(20.688 45.082)" fill="#fff"/>
        <path id="eye" d="M4.924,0C3.419.014.243,2.144.018,3.717A1.555,1.555,0,0,0,1.511,5.562c1.372.017,1.808-1.767,3-2.14,1.283-.4,1.092.524,2.2,1a1.437,1.437,0,0,0,2.106-.792C9.345,1.754,6.469-.029,4.924,0" transform="translate(32.6 43.498)" fill="#fff"/>
        <path id="Fill_221" data-name="Fill 221" d="M.759.232c-2.406,1.41,1.553,4.433,2.926,4.811,2.072.57,6.243-.494,6.734-3.026A1.354,1.354,0,0,0,8.873.278c-.915.149-1.5,1.3-2.35,1.708a2.625,2.625,0,0,1-3.134-.318C2.6.987,2.171-.591.759.232" transform="translate(25.248 52.271)" fill="#fff"/>
        <path id="Fill_223" data-name="Fill 223" d="M20.883.205c-2.15.458-4.335.151-6.5.582-2.2.44-3.519,1.272-5.566.434L8.533,1.1a4.876,4.876,0,0,0-4.9.2C2.65,1.945-.329,4.171.03,5.529.808,8.473,4.16,3.857,5.014,3.407c1.63-.858,2.747.238,4.425.548,2.01.371,3.627-.692,5.52-1.114,2.214-.495,4.705-.667,6.958-.932.89-.1,4.261.6,4.565-.508.523-1.9-4.755-1.374-5.6-1.194" transform="translate(6.868 73.133)" fill="#fff"/>
        <path id="Fill_225" data-name="Fill 225" d="M8.485,10.542h0c-1.6,0-2.886-.052-4.041-.164a6.169,6.169,0,0,1-2.3-.538,2.7,2.7,0,0,1-1.326-1.8A25.567,25.567,0,0,1,.086,4.617C-.13,2.9.061,1.89.652,1.6a1.379,1.379,0,0,1,.614-.115c.12,0,.244.008.344.014h.013c.108.007.211.013.306.013A1.208,1.208,0,0,0,2.147,1.5c.517-.1,1.045-.233,1.6-.379A19.025,19.025,0,0,1,5.977.635C8.1.348,10.407.153,13.03.039h.032C13.485.02,13.965,0,14.483,0A9.87,9.87,0,0,1,17.4.354,3.048,3.048,0,0,1,19.437,2a6.31,6.31,0,0,1,.073,3.4,11.732,11.732,0,0,1-1.1,3.271c-.918,1.641-2.738,1.867-4.568,1.867-.343,0-.693-.008-1-.015h-.02c-.327-.008-.635-.015-.938-.015h-.206l-.88.012H10.79C10.035,10.531,9.254,10.542,8.485,10.542ZM2.349,2.689h0c.041.259.068.751.1,1.321.08,1.438.189,3.407.619,3.892.41.463,1.862.477,2.729.486.216,0,.4,0,.531.012,1.368.085,2.763.126,4.111.166.566.017,1.152.034,1.728.054.3.011.7.062,1.132.117a15.922,15.922,0,0,0,1.916.167,2.7,2.7,0,0,0,1.17-.2A4.931,4.931,0,0,0,17.913,5.9c.446-1.6.5-3.01.125-3.593a2.07,2.07,0,0,0-1.251-.8,7.531,7.531,0,0,0-1.975-.217,31.569,31.569,0,0,0-4.451.442c-.508.076-.946.142-1.262.174a20.6,20.6,0,0,0-2.076.387,18.3,18.3,0,0,1-3.564.545,3.609,3.609,0,0,1-1.111-.146Z" transform="translate(40.183 71.32)" fill="#fff"/>
        <path id="quare" d="M12.089,13.016h0a65.856,65.856,0,0,1-7.332-.374,5.566,5.566,0,0,1-3.072-1.031A4.134,4.134,0,0,1,.438,8.655C.408,8.328.354,7.94.291,7.49c-.3-2.158-.755-5.42.922-6.49C2.469.2,4.988.119,6.826.062,7.253.048,7.657.036,8,.015,8.2.005,8.4,0,8.614,0a27.65,27.65,0,0,1,3.44.3c.934.119,1.9.242,2.834.282a6.764,6.764,0,0,1,3.357.673c.75.483,1.194,1.307,1.535,2.842a2.772,2.772,0,0,0,.2.557,2.035,2.035,0,0,1,.235.883,11.7,11.7,0,0,1-.361,2.3c-.08.361-.155.7-.206.995a4.84,4.84,0,0,1-1.664,3.2,5.774,5.774,0,0,1-3.452.954C13.7,13.005,12.877,13.016,12.089,13.016Zm2.189-3.648c-.939.171-1.93.355-3.119.579l-.587.11c.367.026.7.073,1.015.118a7.628,7.628,0,0,0,1.026.1A1.861,1.861,0,0,0,14.278,9.368ZM6.993,9.195h0l-.159.053L6.2,9.459l0,0L5.771,9.6c.466.057.907.109,1.351.156a1.083,1.083,0,0,1-.129-.563ZM4.134,7.564a.249.249,0,0,0-.186.056.184.184,0,0,0-.042.142.345.345,0,0,0,.045.258.125.125,0,0,0,.1.039c.136,0,.371-.146.7-.435H4.7A1.975,1.975,0,0,1,4.415,7.6h0A1.91,1.91,0,0,0,4.134,7.564Zm8.118-3.977a.164.164,0,0,0-.13.072c-.093.073-.136.118-.129.137s.011.01.025.01a1.531,1.531,0,0,0,.328-.1l.09-.033A.3.3,0,0,0,12.251,3.587Zm4.383-.763c.442.643.656.692.711.692a.07.07,0,0,0,.074-.073C17.434,3.277,17.177,2.916,16.634,2.825Z" transform="translate(63.345 69.776)" fill="#fff"/>
      </g>
      <g id="Profile" transform="translate(221.778 169.207)" opacity="0.5">
        <path id="face-3" data-name="face" d="M11.589,20.1h0a12.121,12.121,0,0,1-3.169-.431,12.978,12.978,0,0,1-2.955-1.209A12.266,12.266,0,0,1,2.945,16.6a10.338,10.338,0,0,1-1.862-2.4A8.244,8.244,0,0,1,0,10,9.193,9.193,0,0,1,1.478,5.3c-.59-.12-.912-.335-.956-.638C.4,3.838,2.335,2.613,2.82,2.354l.174-.093A16.716,16.716,0,0,1,8.226.171,15.7,15.7,0,0,1,10.549,0a14.589,14.589,0,0,1,6.064,1.259,10.6,10.6,0,0,1,2.571,1.65,8.9,8.9,0,0,1,1.935,2.4,8.376,8.376,0,0,1,1.006,3.38,9.808,9.808,0,0,1-.359,3.472,11.4,11.4,0,0,1-1.485,3.21,11.218,11.218,0,0,1-2.372,2.593A10.057,10.057,0,0,1,11.589,20.1ZM10.339,2.413A8.714,8.714,0,0,0,3.833,5.251a6.868,6.868,0,0,0-1.4,2.471,6.98,6.98,0,0,0-.244,3.041A8.364,8.364,0,0,0,5.329,16.1a9.823,9.823,0,0,0,2.762,1.579,8.84,8.84,0,0,0,3.089.573c.185,0,.371-.006.554-.019a8.777,8.777,0,0,0,5.36-2.392,8.811,8.811,0,0,0,2.731-5.208,6.142,6.142,0,0,0-1.394-5.019,8.692,8.692,0,0,0-3.526-2.363,13.178,13.178,0,0,0-4.374-.834Z" transform="translate(26.862 0)" fill="#fff"/>
        <path id="Fill_231" data-name="Fill 231" d="M0,1.387a1.436,1.436,0,0,0,2.87,0,1.436,1.436,0,0,0-2.87,0" transform="translate(33.965 7.211)" fill="#fff"/>
        <path id="Fill_233" data-name="Fill 233" d="M0,1.5a1.557,1.557,0,0,0,3.112,0A1.557,1.557,0,0,0,0,1.5" transform="translate(39.286 7.391)" fill="#fff"/>
        <path id="Fill_235" data-name="Fill 235" d="M.026.519c-.419,1.521,4.356,2.3,4.515.541C4.616.219.317-.542.026.519" transform="translate(35.669 12.339)" fill="#fff"/>
        <path id="Fill_237" data-name="Fill 237" d="M.543,3.138c5.494-.659,11.158-.355,16.679-.2,1.382.04,2.763.079,4.145.1.878.015,2.776.436,3.542.025C28.048,1.384,21.89.57,21.018.493A190.205,190.205,0,0,0,1.545.093C-.084.156-.436,3.255.543,3.138" transform="translate(49.148 8.781)" fill="#fff"/>
        <path id="Hola_:_2" data-name="Hola :)" d="M74.413,28.974c.047-5.756.253-11.552.7-17.291.18-2.339.4-4.676.576-7.015.084-1.1.476-2.645-.172-3.612A1.974,1.974,0,0,0,72.5.736C71.443,2.1,71.75,4.4,71.619,6.051c-.2,2.543-.446,5.084-.567,7.632a117.065,117.065,0,0,0,.107,14.875,45.156,45.156,0,0,0,1.133,6.858c.246,1.032,2.2,5.628,1.79,6.262-.637.983-5.346.611-6.368.639-2.621.07-5.244.116-7.865.166q-3.367.064-6.735.093c-.891.008-6.129-.151-4.967,1.171C35.155,44.653,21.915,43.142,9,42.624c-.652-.026-1.719-.212-2.7-.265a8.6,8.6,0,0,1-.239-1.2c-.17-2.075-.214-4.158-.4-6.232-.337-3.8-.989-7.554-1.378-11.343S3.935,16,3.709,12.209c-.039-.65-.13-5.977-1.474-7.271a6.1,6.1,0,0,0,2.257.225c4.79-.386,9.545-1.219,14.294-1.933,1.359-.2,4.442-.06,5.569-.739C25.33,1.9,25.716-.157,24.019.01,19.283.517,14.574,1.3,9.875,2.079c-1.257.207-2.51.429-3.763.655-.837.151-3.046.14-3.7.644-.788.613-.872,1.029-.6,1.306-.371-.1-.817.058-1.351.593C-.55,6.595.4,9.835.521,11.378c.145,1.851.216,3.7.3,5.559A92.142,92.142,0,0,0,1.937,27.607c.647,3.971,1.2,7.958,1.846,11.928a27.6,27.6,0,0,0,.67,3.04c-1.747.894-.559,2.315.826,2.567l.03,0c.432,1.053,1.036,2.03,1.508.618a1.4,1.4,0,0,0,.057-.391c3.579.405,7.513.153,11.037.3,7.632.312,15.312.78,22.952.543a88.677,88.677,0,0,0,9.058-.766c1.757-.236,3.521-.518,5.25-.91.124-.028.312-.057.53-.093l.105,0q3.971-.06,7.939-.221c2.221-.092,4.451-.14,6.665-.349,1.375-.13,4.281-.106,5.125-1.489.768-1.257-.516-4.5-.7-5.908a55.164,55.164,0,0,1-.423-7.5" transform="translate(0 10.256)" fill="#fff"/>
        <path id="Fill_241" data-name="Fill 241" d="M28.059.013C25.943.194,23.987,1.188,21.852,1.2,20.06,1.21,18.3.675,16.494.754,14.38.846,13.217,2.213,11.365,2.67c-1.474.364-2.4-.765-3.7-1.264a4.147,4.147,0,0,0-4.249.648C2.386,2.756-.019,4.328,0,5.745c.055,4.292,5.063-1.637,6.072-1.709,1.341-.1,2.84,1.433,4.267,1.521,1.887.115,3.1-1.1,4.834-1.544,1.757-.448,3.656.1,5.417.271A16.462,16.462,0,0,0,26.3,3.551a11.54,11.54,0,0,1,5.4-.05c1.292.264,4.511,1.8,5.076-.174C37.553.644,29.538-.113,28.059.013" transform="translate(19.522 22.595)" fill="#fff"/>
        <path id="Fill_243" data-name="Fill 243" d="M21.585.006C17.25.426,12.889.8,8.534.914,6.648.965-.6.156.04,2.553c.551,2.055,10.418.761,12.428.6,2.219-.172,4.434-.413,6.642-.693.782-.1,2.672,0,3.224-.653C22.86,1.186,22.6-.1,21.585.006" transform="translate(26.64 30.789)" fill="#fff"/>
        <path id="have_a_nice_day_:_" data-name="have a nice day :)" d="M4.816,9.811a4.446,4.446,0,0,1-3.47-1.735A6.126,6.126,0,0,1,0,4.38,4.315,4.315,0,0,1,1,1.4,4.53,4.53,0,0,1,4.369,0h.047a.743.743,0,0,1,.612.285.616.616,0,0,0,.4.237h.013A.781.781,0,0,0,5.773.354L5.82.323a.937.937,0,0,1,.456-.2H6.3a3.329,3.329,0,0,1,3.053,1.5,4.082,4.082,0,0,1,.608,2.051,6.31,6.31,0,0,1-.345,2.274,5.6,5.6,0,0,1-3.074,3.54A5.061,5.061,0,0,1,4.816,9.811Zm.958-7.489a.97.97,0,0,0-.516.155,1.73,1.73,0,0,1-.89.238c-1.142.036-1.788.637-1.772,1.649a3.211,3.211,0,0,0,.747,1.9A2.314,2.314,0,0,0,5.069,7.2a2.054,2.054,0,0,0,1.463-.69,4.09,4.09,0,0,0,.909-1.779,2.308,2.308,0,0,0-.211-1.914c-.263-.324-.372-.333-.57-.349a1.8,1.8,0,0,1-.364-.06A2.009,2.009,0,0,0,5.774,2.323Z" transform="translate(14.866 38.982)" fill="#fff"/>
        <path id="espero" d="M4.032,8.878H3.944A3.823,3.823,0,0,1,1.1,7.539,4.651,4.651,0,0,1,.034,3.969C.315,1.682,1.742.433,4.525.039A3.949,3.949,0,0,1,5.069,0,2.885,2.885,0,0,1,7.244.925,4.7,4.7,0,0,1,8.276,4.439,5.359,5.359,0,0,1,7.088,7.491,3.887,3.887,0,0,1,4.032,8.878ZM3.407,3.185h0l.005,0a1.457,1.457,0,0,0-.524,1.7,1.383,1.383,0,0,0,1.27,1.094,1.376,1.376,0,0,0,.489-.095A2.136,2.136,0,0,0,5.678,4.482a.965.965,0,0,0-.166-.893c.018.018.024.033.019.043s-.035.023-.085.023A6.643,6.643,0,0,1,4.279,3.42c-.35-.09-.669-.179-.806-.217l-.066-.018Z" transform="translate(33.793 38.92)" fill="#fff"/>
        <path id="hola" d="M3.626,10.5h0A3.439,3.439,0,0,1,1.091,9.464,4.009,4.009,0,0,1,.024,7.089,4.26,4.26,0,0,1,.682,4.3a4.171,4.171,0,0,1,2.7-1.757A1.3,1.3,0,0,1,2.853.786,1.306,1.306,0,0,1,3.939,0C5.485,0,7.313,3.649,7.472,4.575a6.929,6.929,0,0,1-.235,3.564A3.673,3.673,0,0,1,6.3,9.554a3.482,3.482,0,0,1-1.641.826A4.877,4.877,0,0,1,3.626,10.5ZM4.761,5.375h0C3.137,5.518,2.99,6.185,3,6.465a1,1,0,0,0,.93.9.653.653,0,0,0,.488-.219,2.3,2.3,0,0,0,.341-1.77Z" transform="translate(59.171 36.838)" fill="#fff"/>
      </g>
      <path id="Fill_251" data-name="Fill 251" d="M8.112.174C5.685.5-.05,2.509,0,4.67c.078,3.372,4.952-.311,6.036-.807C11.861,1.2,19.405,4.651,25.47,5.384c2.781.336,8.22.958,10.676-.441,4.368-2.488-5.734-1.865-7.02-1.965C22.134,2.436,15.177-.774,8.112.174" transform="translate(308.217 212.103)" fill="#c1dee2" opacity="0.5"/>
      <g id="List" transform="translate(459.154 189.475)" opacity="0.5">
        <path id="Fill_253" data-name="Fill 253" d="M.02,1.606a48.487,48.487,0,0,0,.395,8.914c.165.886.3,2.584,1.231,3.044a1.426,1.426,0,0,0,2.083-1.02c.272-1.12-.325-2.8-.385-3.972C3.26,6.966,3.254,5.358,3.254,3.75c0-1.161.382-3.03-.989-3.627A1.65,1.65,0,0,0,.02,1.606" transform="translate(1.267 3.1)" fill="#c1dee2"/>
        <path id="Fill_255" data-name="Fill 255" d="M46.195.02c-9.816.985-19.773,1.19-29.625,1.7-4.554.237-10.057-.066-14.348,1.7-.8.327-3.65,2.149-1.333,2.891.722.231,1.456-.546,2.048-.807A13.123,13.123,0,0,1,6.12,4.768c8.952-1.437,18.315-1.187,27.359-1.859,2.317-.172,4.636-.349,6.948-.577,1.652-.162,5.125-1.353,6.649-.744,2.605,1.041,2.544,7.8,2.6,10.128.027,1.2-1.141,5.52,1.18,5.082,1.857-.35,1.185-4.835,1.04-6.062-.38-3.216-1.028-11.19-5.7-10.717" transform="translate(1.931)" fill="#c1dee2"/>
        <path id="Fill_257" data-name="Fill 257" d="M48.478,0c-8.526.77-17.249.015-25.811.317C18.18.481,13.7.733,9.209.882,7.268.946,5.325.948,3.383.962,2.454.969-1.773,1.532.842,3.373c1.158.815,4.848.159,6.176.143,2-.023,3.99-.106,5.984-.184,4.619-.181,9.235-.431,13.857-.556,4.421-.12,8.843-.145,13.264-.265a55.853,55.853,0,0,0,6.609-.448c.492-.073,2.09-.13,2.431-.679.323-.519.1-1.454-.684-1.379" transform="translate(3.267 16.639)" fill="#89c5cc"/>
        <path id="Fill_259" data-name="Fill 259" d="M4.858,9.184h0A4.745,4.745,0,0,1,1.451,7.823,4.942,4.942,0,0,1,.018,4.784,4.218,4.218,0,0,1,.845,1.829,5.138,5.138,0,0,1,4.118.02,1.208,1.208,0,0,1,4.331,0a1.5,1.5,0,0,1,.686.2A1.665,1.665,0,0,0,5.57.395,1.57,1.57,0,0,0,5.744.4a3.57,3.57,0,0,0,.514-.05A3.547,3.547,0,0,1,6.776.3,1.468,1.468,0,0,1,7.193.36,3.111,3.111,0,0,1,8.656,1.369a5.082,5.082,0,0,1,.886,1.555,4.745,4.745,0,0,1,.264,2.022A4.576,4.576,0,0,1,7.954,8.233a4.737,4.737,0,0,1-1.862.821A6.122,6.122,0,0,1,4.858,9.184Zm1.369-6.1h0c-1.112.006-3.091.242-3.453,1.088-.162.379.012.843.519,1.381a2.2,2.2,0,0,0,1.6.736A2.035,2.035,0,0,0,6.749,5.112a1.828,1.828,0,0,0-.521-2.024Z" transform="translate(7.132 6)" fill="#c1dee2"/>
        <path id="Fill_261" data-name="Fill 261" d="M16.929.062C12.8.075,8.663.251,4.53.329,3.263.353.005-.214,0,1.784-.006,3.919,3.623,3.131,4.831,3.1c4.1-.1,8.208-.278,12.291-.668,1.031-.1,4.6.072,4.6-1.331,0-1.486-3.957-1.041-4.79-1.041" transform="translate(20.55 8.528)" fill="#c1dee2"/>
        <path id="Fill_263" data-name="Fill 263" d="M45.759.01C35.538.284,25.331.38,15.118.9c-3.82.2-7.635.341-11.461.341-.737,0-2.221-.285-2.914.179C-1.139,2.682,1,3.762,2.23,3.83c8.39.466,16.9-.693,25.288-.955,4.909-.153,9.819-.2,14.726-.448,1.338-.068,2.677-.147,4.013-.251.768-.059,2.8.1,3.422-.346C52.391-.133,46.674-.015,45.759.01" transform="translate(1.591 22.517)" fill="#89c5cc"/>
        <path id="Fill_265" data-name="Fill 265" d="M.058,1.772A46.956,46.956,0,0,0,.3,9.662c.136,1.037.2,2.214,1.415,2.477,1.1.239,1.664-.6,1.893-1.522.558-2.261.067-5.515.06-7.863,0-1.161,0-2.461-1.439-2.723A1.827,1.827,0,0,0,.058,1.772" transform="translate(0.394 25.752)" fill="#89c5cc"/>
        <path id="Fill_267" data-name="Fill 267" d="M58.185,0Q33.366,1.312,8.556,2.337C7.264,2.392-2.767,2.282.74,5.781c1.083,1.08,3.874.349,5.275.28,2.105-.1,4.211-.183,6.317-.29,8.347-.425,16.715-.539,25.056-1.016q6.885-.394,13.735-1.208c2.172-.254,4.868-.228,6.9-1.079C59.07,2.03,60.2-.1,58.185,0" transform="translate(0 33.91)" fill="#89c5cc"/>
        <path id="Fill_269" data-name="Fill 269" d="M.767.707C-.492,1.96.156,4.432.25,5.981c.13,2.132.289,4.265.555,6.384.173,1.377.082,3.52.816,4.71a2.033,2.033,0,0,0,3.532-.107c.688-1.19.34-3.694.322-5.013-.025-1.824-.138-3.651-.246-5.471-.091-1.521.254-3.959-.583-5.262A2.5,2.5,0,0,0,.767.707" transform="translate(47.904 19.763)" fill="#89c5cc"/>
        <path id="Fill_271" data-name="Fill 271" d="M4.537,7.586h0a5.373,5.373,0,0,1-.823-.061A4.63,4.63,0,0,1,.387,5.208,3.341,3.341,0,0,1,0,3.747a3.378,3.378,0,0,1,.365-1.6,3.372,3.372,0,0,1,2.2-1.68A13.719,13.719,0,0,1,5.49.031L5.74.012C5.834,0,5.93,0,6.026,0A3.969,3.969,0,0,1,8.87,1.256a3.392,3.392,0,0,1,.943,2.561A3.636,3.636,0,0,1,7.97,6.624,6.623,6.623,0,0,1,4.537,7.586ZM3.246,3.047a.31.31,0,0,0-.2.085c-.169.143-.4.472-.018,1.064a1.655,1.655,0,0,0,1.461.761,3.18,3.18,0,0,0,1.661-.523,1.661,1.661,0,0,0,.845-1.042c.026-.258-.105-.6-.875-.753H6.072a7.574,7.574,0,0,0-2.2.573.269.269,0,0,1-.107.022A.552.552,0,0,1,3.5,3.141.548.548,0,0,0,3.246,3.047Z" transform="translate(7.672 27.187)" fill="#89c5cc"/>
        <path id="Fill_273" data-name="Fill 273" d="M8.386.144C6.448.175,2.639-.4.95.547c-1.671.935-.926,2.6.6,3,1.008.263,2.654-.162,3.7-.2,1.38-.056,2.761-.068,4.141-.087,2.322-.031,4.643,0,6.965,0,2.372,0,4.784.065,7.152-.11,3-.221,2.915-2.464-.015-2.744A137.224,137.224,0,0,0,8.386.144" transform="translate(20.656 28.388)" fill="#89c5cc"/>
        <path id="Fill_275" data-name="Fill 275" d="M0,.474c0,1.066.946,0,.939,0S0-.592,0,.474" transform="translate(24.092 53.181)" fill="#89c5cc"/>
        <path id="Fill_277" data-name="Fill 277" d="M0,1.489c.061,3.1.1,6.2.233,9.294.042.979-.238,2.89.948,3.389,1.321.555,1.731-.829,1.883-1.767.482-2.972.009-6.366-.037-9.373-.016-1.01.2-2.416-.944-2.919A1.529,1.529,0,0,0,0,1.489" transform="translate(2.701 43.586)" fill="#89c5cc"/>
        <path id="Fill_279" data-name="Fill 279" d="M53.2,11.125h0A1.458,1.458,0,0,1,52,10.273c-.447-.749-.254-2.064-.067-3.336a9.931,9.931,0,0,0,.173-2.02c-.011-.128-.019-.255-.028-.378-.062-.895-.115-1.667-.872-2a2.734,2.734,0,0,0-1.075-.167c-.443,0-.914.048-1.37.094-.378.038-.734.074-1.019.075-2.373.011-4.786.017-7.12.023h0c-7.1.019-14.433.038-21.647.184-4.27.086-7.538.2-10.6.357a29.125,29.125,0,0,0-4.846.557,10.268,10.268,0,0,1-1.995.231C.709,3.895.21,3.73.053,3.4c-.145-.3.008-.738.454-1.3C1.3,1.109,4.023.916,5.652.8c.3-.021.558-.039.773-.06C8.183.575,9.987.5,11.733.427h.007l.787-.033C16.774.211,21.1.145,25.278.082h.048L26.794.059C29.337.019,31.948,0,34.777,0c2.1,0,4.273.011,6.648.032,2.787.026,5.6.156,8.59.4a7.016,7.016,0,0,1,2.759.541,3.485,3.485,0,0,1,1.482,2.292,13.744,13.744,0,0,1,.732,5.931,2.821,2.821,0,0,1-.644,1.308A1.59,1.59,0,0,1,53.2,11.125Z" transform="translate(1.937 42.53)" fill="#89c5cc"/>
        <path id="Fill_281" data-name="Fill 281" d="M44.825.894c-10.315,1.2-20.924.492-31.294.534-2.522.01-5.046.03-7.565.153-1.331.064-4.485-.3-5.4.724-1.922,2.164,1.54,2.479,2.8,2.389,2.555-.182,5.116-.265,7.678-.284,9.023-.07,18.1.351,27.112-.094A78.69,78.69,0,0,0,49.34,2.762c.821-.16,6.444-1.229,3.238-2.51-1.895-.757-5.762.41-7.752.642" transform="translate(2.716 54.5)" fill="#89c5cc"/>
        <path id="Fill_284" data-name="Fill 284" d="M4.667,7.724h0a5.825,5.825,0,0,1-2.1-.382,4.3,4.3,0,0,1-1.7-1.159C-.864,4.2.3,2.192,1.673.486A1.429,1.429,0,0,1,2.866,0,6.465,6.465,0,0,1,4.274.22c.249.058.484.113.682.139.145.019.282.036.414.052A3.179,3.179,0,0,1,7.909,1.574,4.2,4.2,0,0,1,8.932,4.889,2.969,2.969,0,0,1,7.474,7,5.522,5.522,0,0,1,4.667,7.724Zm.345-4.591A1.536,1.536,0,0,0,3.9,3.439a.315.315,0,0,0-.083.254c.038.272.461.561,1.17.561a3.22,3.22,0,0,0,.837-.119,2.384,2.384,0,0,0-.5-.992C5.214,3.136,5.11,3.133,5.012,3.133Z" transform="translate(11.359 47.429)" fill="#89c5cc"/>
        <path id="Fill_286" data-name="Fill 286" d="M0,1.489C0,3.782,9.9,2.8,11.666,2.793c1.476,0,10.4.812,9.76-1.548C20.9-.7,12.109.269,10.237.266,8.618.264,0-.847,0,1.489" transform="translate(27.331 49.614)" fill="#89c5cc"/>
      </g>
      <g id="Checkmark_" data-name="Checkmark!" transform="translate(257.39 265.361)" opacity="0.5">
        <path id="Fill_292" data-name="Fill 292" d="M14.612,24.143h0a10.752,10.752,0,0,1-3.038-.447,12.593,12.593,0,0,1-2.988-1.339,14.814,14.814,0,0,1-5.2-5.416A12.6,12.6,0,0,1,1.774,9.653a1.733,1.733,0,0,1-.89.324.734.734,0,0,1-.66-.394A2.868,2.868,0,0,1,.3,7.209,18.014,18.014,0,0,1,2.247,4.522c.126-.154.256-.312.381-.465a10.848,10.848,0,0,1,3.7-3.048A10.766,10.766,0,0,1,11.059,0h.191A19.911,19.911,0,0,1,18.82,1.477,13.9,13.9,0,0,1,22.15,3.434a10.059,10.059,0,0,1,3.74,6.5,12.205,12.205,0,0,1-.047,3.866,12.978,12.978,0,0,1-3.416,6.853,11.838,11.838,0,0,1-3.7,2.616A10.151,10.151,0,0,1,14.612,24.143ZM11.132,2.98a7.542,7.542,0,0,0-2.817.467A5.036,5.036,0,0,0,6.029,5.258a9.145,9.145,0,0,0-1.423,3.16,9.566,9.566,0,0,0-.186,3.464,10.489,10.489,0,0,0,1.106,3.357,13.814,13.814,0,0,0,2.212,3.106,12,12,0,0,0,2.984,2.328A8.135,8.135,0,0,0,14.143,21.7c.14.008.281.012.421.012a8.38,8.38,0,0,0,6.328-3.1,10.93,10.93,0,0,0,1.885-3.127,9.952,9.952,0,0,0,.7-3.515,7.374,7.374,0,0,0-3.162-6.308A15.583,15.583,0,0,0,13.4,3.139,19.007,19.007,0,0,0,11.132,2.98Z" transform="translate(0 1.719)" fill="#89c5cc"/>
        <path id="Fill_294" data-name="Fill 294" d="M16.213.349A31.908,31.908,0,0,0,10.077,6.5c-1.7,2.2-2.828,4.942-4.873,6.858C4.171,12.23,2.961,9.192.9,10.4c-1.71,1-.609,2.72.224,3.85,2.15,2.916,4.538,4.09,7.3,1.209,2.5-2.617,3.927-6.107,6.268-8.875,1.027-1.214,2.614-2.419,3.432-3.76.741-1.215-.176-3.745-1.908-2.472" transform="translate(5.604 0)" fill="#89c5cc"/>
      </g>
      <g id="Whiteboard_Stuff" data-name="Whiteboard Stuff" transform="translate(398.052 45.368)" opacity="0.5">
        <path id="Wireframy_Stuff-2" data-name="Wireframy Stuff" d="M1.364,25.09c-1.148-.52-1.121-1.1-.652-1.543a7.69,7.69,0,0,1-.3-2.137A50.61,50.61,0,0,1,0,15.249C-.006,11.186,0,6.966,1.126,3.034a1,1,0,0,1-.72-.906C.41.07,6.655.12,9.86.172c.669.011,1.205.022,1.525.013C13.659.126,15.934.118,18.208.13c.5,0,1.052-.031,1.627-.065a12.71,12.71,0,0,1,3.406.1c2.914.677,2.73,5.672,2.789,8.088a126.8,126.8,0,0,1-.307,13.211c-.122,1.492-1.207,3.384-2.446,1.327-.691-1.147-.383-3.827-.384-5.095,0-4.506.7-9.148.027-13.631-.221-1.469-.172-1.569-1.668-1.538-1.186.025-2.372.064-3.558.089-2.415.051-4.831.084-7.245.172-.917.034-4.211.61-6.781.607,0,.021,0,.041,0,.062.035,1.738-.817,3.846-.932,5.674-.279,4.4.054,8.895-.358,13.269-.012.133-.019.274-.027.416.077-.012.153-.02.225-.025,1.915-.122,3.855-.071,5.774-.116,1.223-.028,2.462-.027,3.706-.026a70.03,70.03,0,0,0,8.213-.31c.794-.1,1.072.916.715,1.444-.4.593-1.679.563-2.271.65a51.214,51.214,0,0,1-5.24.424c-1.838.081-3.676.142-5.515.193-1.067.03-3.006.338-4.612.338A5.131,5.131,0,0,1,1.364,25.09Z" transform="translate(20.511)" fill="#fff"/>
        <path id="Wireframy_Stuff-3" data-name="Wireframy Stuff" d="M1.578,24.115a.77.77,0,0,1,.166-.483A3.247,3.247,0,0,1,1,22.321a22.914,22.914,0,0,1-.725-6.249C.181,11.627.23,7.174.2,2.728a1.142,1.142,0,0,1,.34-1.593C1.9-.032,5.818.264,7.544.173,10.027.042,12.512.011,15,0c2.633-.014,5.269.034,7.9.115.976.03,7.764.2,4.73,1.846a3.169,3.169,0,0,1-.583.238,9.611,9.611,0,0,1,.121,1.892c-.129,2.366-.184,4.737-.289,7.1-.117,2.643-.229,5.285-.32,7.929-.048,1.4.43,4.648-.676,5.656-.745.68-1.255.544-1.6.082-1.9.552-5.587.452-7.926.352-.918-.039-1.629-.078-1.942-.078-1.049,0-4.545.356-7.625.356C4.02,25.5,1.587,25.207,1.578,24.115ZM3.252,8.959c-.005,4.5.161,8.974.261,13.449q0,.22-.01.409a37.828,37.828,0,0,1,7.874-.287c.911.035,1.621.069,1.962.069,2.207-.008,4.414.022,6.619.11.25.01.632,0,1.08-.013a20.392,20.392,0,0,1,2.616.055c-.012-.12-.02-.23-.025-.325-.12-2.38.011-4.785.088-7.165.077-2.4.2-4.8.287-7.194a36.616,36.616,0,0,1,.074-5.584c-1.6-.03-3.284-.224-4.365-.224-2.538,0-5.074-.029-7.612.021a73.693,73.693,0,0,0-8.233.448c-.149.02-.328.058-.527.1C3.756,4.566,3.253,7.354,3.252,8.959Z" transform="translate(55.714 0.451)" fill="#fff"/>
        <path id="Fill_135" data-name="Fill 135" d="M.937.253C-.7,1.206.185,5.019.75,6.338A10.909,10.909,0,0,0,5.6,11.329C9.713,13.6,15.641,13,18.752,16.944c.032.041,1.107,1.105,1.352-.273.2-1.131-1.806-2.859-2.584-3.426-2.212-1.612-5.048-2.132-7.607-2.938C7.185,9.448,4.191,7.865,3.047,5.052c-.405-1,.367-6.254-2.11-4.8" transform="translate(31.04 24.7)" fill="#fff"/>
        <path id="Fill_137" data-name="Fill 137" d="M18.08.052c-1.5.412-.506,2.47-.509,3.5a6.1,6.1,0,0,1-1.206,3.656c-2.009,2.6-5.942,2.991-8.892,3.737-2.141.542-7.265,1.7-7.465,4.6-.224,3.234,4.3-.7,4.681-.863,4.228-1.551,9.7-1.85,12.96-5.264a8.389,8.389,0,0,0,2.27-5.231C19.99,3.1,20-.473,18.08.052" transform="translate(51.202 26.733)" fill="#fff"/>
        <path id="Fill_139" data-name="Fill 139" d="M12.317,21.6h0A13.652,13.652,0,0,1,8,20.861a14.07,14.07,0,0,1-3.959-2.083,10.792,10.792,0,0,1-2.9-3.245A8.558,8.558,0,0,1,0,11.312,8.71,8.71,0,0,1,.956,7.266,10.761,10.761,0,0,1,3.48,4.1,18.475,18.475,0,0,1,10.87.347,10.381,10.381,0,0,1,13.512,0a9.949,9.949,0,0,1,6.75,2.656,10.771,10.771,0,0,1,3.364,6.686,10.7,10.7,0,0,1-2.449,8.277,11.037,11.037,0,0,1-3.64,2.8,11.991,11.991,0,0,1-4.707,1.169C12.661,21.593,12.488,21.6,12.317,21.6ZM3.779,7.539a6.074,6.074,0,0,0-.2,6.358,8.994,8.994,0,0,0,3.854,3.426,12.2,12.2,0,0,0,5.347,1.282,8.76,8.76,0,0,0,3.691-.752A7.3,7.3,0,0,0,20.175,14a8.647,8.647,0,0,0,.471-5.153,7.33,7.33,0,0,0-2.194-3.937A6.718,6.718,0,0,0,13.9,3.224a1.55,1.55,0,0,1,.352,1.081.76.76,0,0,1-.39.5.9.9,0,0,1-.45.141c-.373,0-.618-.345-.856-.678a1.54,1.54,0,0,0-.707-.665,1.019,1.019,0,0,0-.276-.036A4.811,4.811,0,0,0,9.25,4.655,9.269,9.269,0,0,0,8.2,5.723C7.238,6.8,5.915,8.273,4.853,8.273A1.242,1.242,0,0,1,3.779,7.539Z" transform="translate(38.382 44.16)" fill="#fff"/>
        <path id="Fill_141" data-name="Fill 141" d="M0,1.04a1.086,1.086,0,0,0,2.169,0A1.085,1.085,0,0,0,0,1.04" transform="translate(46.589 52.429)" fill="#fff"/>
        <path id="Fill_143" data-name="Fill 143" d="M0,1.274a1.331,1.331,0,0,0,2.658,0A1.33,1.33,0,0,0,0,1.274" transform="translate(50.405 51.937)" fill="#fff"/>
        <path id="Fill_145" data-name="Fill 145" d="M.46.123C-1.713,1.4,4.5,3.942,4.748,1.346c.106-1.12-.979-.818-1.7-.9C2.355.366,1.117-.259.46.123" transform="translate(47.214 57.009)" fill="#fff"/>
        <path id="Fill_147" data-name="Fill 147" d="M0,1.095a60.55,60.55,0,0,0,.668,9.75c.118.612.2,2.83.683,3.284,1.189,1.118,1.209-1.025,1.255-1.845.165-2.94-.144-5.972-.212-8.919A7.745,7.745,0,0,0,2.249.8C1.774-.172-.045-.461,0,1.095" transform="translate(46.73 65.108)" fill="#fff"/>
        <path id="Fill_149" data-name="Fill 149" d="M31.785.362C27.02,5.711,20.457,5.317,13.846,5.785c-3.493.248-7.025.756-9.836,3.015A11.939,11.939,0,0,0,.819,12.668c-.331.656-1.9,4.441.457,3.543.836-.318,1.66-2.821,2.2-3.561a10.511,10.511,0,0,1,3.93-3.33c3.051-1.459,6.694-1.435,10-1.62,3.458-.193,7.169-.374,10.348-1.878a15.67,15.67,0,0,0,4.1-2.726c.43-.406,1.352-1.1,1.421-1.718.079-.71-.6-2.011-1.494-1.014" transform="translate(12.621 63.193)" fill="#fff"/>
        <path id="Fill_151" data-name="Fill 151" d="M16.735.329C12.259.479,7.788.66,3.318.943,2.4,1-.652.816.126,2.693c.623,1.5,4.348.509,5.58.436,4.658-.277,9.335-.373,13.983-.792,1.044-.094,5.764-.057,3.815-1.907-.927-.881-5.488-.145-6.769-.1" transform="translate(3.614 79.642)" fill="#fff"/>
        <path id="Fill_153" data-name="Fill 153" d="M.9.427C-.514,2.28.134,6.784.241,9.012c.1,2.159-.316,6.106,2.5,6.441-.895-.117.679.054.935.068.572.031,1.147.041,1.72.047,1.324.014,2.648,0,3.971-.03,3-.06,6-.147,9-.313,1.258-.07,8.086-.012,8.356-1.319.345-1.671-6.2-.726-7.372-.672-2.854.131-5.712.158-8.568.2-1.416.019-2.833.033-4.248,0-.584-.011-2.9.229-3.255-.161-.3-.332-.067-3.384-.073-3.851-.021-1.522-.019-3.048.035-4.569.037-1.024.59-2.973.139-3.935A1.559,1.559,0,0,0,.9.427" transform="translate(0 81.704)" fill="#fff"/>
        <path id="Fill_155" data-name="Fill 155" d="M0,1.77A48.165,48.165,0,0,0,.908,11.934c.266,1.1.64,3.379,1.748,3.95A1.521,1.521,0,0,0,4.9,14.475c.1-1.449-.68-3.352-.839-4.839C3.875,7.9,3.767,6.164,3.7,4.421,3.656,3.11,4.054,1.144,2.8.3A1.8,1.8,0,0,0,0,1.77" transform="translate(23.946 80.448)" fill="#fff"/>
        <path id="Fill_157" data-name="Fill 157" d="M.885.547C-.507,1.934.115,6.324.289,8.106c.127,1.305,1.556,7.725,3.7,4.377C4.933,11,3.73,7.087,3.738,5.36a22.111,22.111,0,0,0,.207-3.547C3.7.416,2.148-.714.885.547" transform="translate(31.97 80.843)" fill="#fff"/>
        <path id="Wireframy_Stuff-4" data-name="Wireframy Stuff" d="M1.976,16.528C.909,16.484-.23,16.135.04,14.756c.239-1.223,1.47-1.233,2.473-1.335a86.282,86.282,0,0,1,9.084-.406c6.382.022,12.759-.011,19.14-.045a1.382,1.382,0,0,1,.712.274c-.333-.405-.173-1-.235-1.59-.168-1.579-.276-3.131-.575-4.709-.239-1.263-.42-3.407-1.59-4.2-1-.676-2.939-.65-4.469-.625-.433.007-.833.014-1.169.006A106.209,106.209,0,0,0,11.1,2.681c-1.862.17-3.747.3-5.588.633C4.489,3.5,1.482,5.005.663,4.079-1.309,1.849,7.355.934,8.532.812,12.713.381,16.9.057,21.1.017,23.944,0,28.8-.247,30.891,2.083c1.254,1.4,1.694,3.7,2.183,5.449.376,1.341,1.395,3.758.671,5.143-.328.627-.855,1.161-1.656.939a1.505,1.505,0,0,1-.448-.2,1.162,1.162,0,0,1,.243,1.267c-.479,1.111-2.24.871-3.2.951-3.193.266-6.4.444-9.6.472-1.525.013-3.049,0-4.574-.012-1.571-.013-3.143-.026-4.713-.01-2.345.023-4.778.457-7.121.457Q2.324,16.542,1.976,16.528Z" transform="translate(33.963 79.432)" fill="#fff"/>
        <path id="Line" d="M31.228,16.477h0c-.772,0-1.567-1.313-2.093-2.182a7.641,7.641,0,0,0-.446-.69,7.264,7.264,0,0,0-3.571-2.637A42.033,42.033,0,0,0,16.5,9.352c-.988-.115-2.01-.235-2.989-.374-.505-.072-1.02-.137-1.565-.206-2.624-.332-5.6-.708-7.841-1.977C3.118,6.239.016,3.4,0,1.5A1.374,1.374,0,0,1,.742.244,1.553,1.553,0,0,1,1.512,0c.75,0,1.167.816,1.536,1.537.118.23.229.447.345.627a6.127,6.127,0,0,0,3.76,2.718,56.569,56.569,0,0,0,7.276,1.43c.627.095,1.275.193,1.909.295.519.083,1.058.164,1.579.243A33.262,33.262,0,0,1,26.36,8.878a15.362,15.362,0,0,1,3.246,2.681c.9.925,2.415,2.655,2.482,3.857a.971.971,0,0,1-.5.961A.707.707,0,0,1,31.228,16.477Z" transform="translate(57.944 61.11)" fill="#fff"/>
        <path id="Wireframy_Stuff-5" data-name="Wireframy Stuff" d="M3.459,17.025c-1.091-.106-2.264-.491-1.993-1.867A17.5,17.5,0,0,1,.289,10.353,51.023,51.023,0,0,1,.015,3.225a1.561,1.561,0,0,1,2.5-1.2,18.78,18.78,0,0,1,4.7-.748c1.948-.2,3.914-.27,5.868-.387C17.646.613,22.2.122,26.775.02c1.367-.029,3.2-.152,4.294.857,1.245,1.15,1.493,4,1.867,5.538a37.483,37.483,0,0,1,1.059,5.078,9.667,9.667,0,0,1,.1,1.709,1.07,1.07,0,0,1,.852,1.233c-.107,1.12-1.657,1.272-2.565,1.449a57.448,57.448,0,0,1-9.3.541c-4.96.14-10.186.792-15.256.792C6.351,17.219,4.893,17.164,3.459,17.025ZM4.1,13.841c.14,0,.278,0,.411,0q4.829-.085,9.652-.278c3.281-.126,6.561-.266,9.844-.3,1.143-.013,2.3.023,3.464.059,1.489.046,2.984.092,4.461.035-.565-1.479-.479-3.808-.781-5.339a24.322,24.322,0,0,0-1.024-4.753c-.688-1.607-1.287-1.235-3.079-1.113-1.843.125-3.684.3-5.524.452-4.047.333-8.1.544-12.147.826-2.1.146-4.11.746-6.165.981-.031.733-.134,1.473-.123,2.008.035,1.578.19,3.145.327,4.717.056.639.319,1.742.359,2.71H4.1Z" transform="translate(70.845 78.445)" fill="#fff"/>
      </g>
    </g>
    <g id="Group_2" data-name="Group 2" transform="translate(483.747 1667.84)">
      <g id="Group" transform="translate(0 0)">
        <g id="Head" transform="translate(43.374)">
          <g id="Head-2" data-name="Head" transform="translate(31.651 18.183)">
            <path id="Head-3" data-name="Head" d="M0,42.817,4.843,20.23C2.142,17.057.314,13.169.619,8.813,1.5-3.739,18.961-.978,22.357,5.357s2.993,22.405-1.4,23.537c-1.751.452-5.48-.655-9.276-2.944l2.383,16.866Z" transform="translate(0 0)" fill="#b28b67"/>
          </g>
          <path id="hair" d="M25.593,14.294a18.347,18.347,0,0,0-5.886-.651,10.138,10.138,0,0,0,.717-5.121,15.614,15.614,0,0,0-1.66-4.63,6.335,6.335,0,0,0-1.228-1.915A4.193,4.193,0,0,0,15.549.909a5.312,5.312,0,0,0-2.289,0c-.333.07-.631.222-.958.307s-.5-.123-.739-.333A4.183,4.183,0,0,0,9.383.034,5.621,5.621,0,0,0,6.9.332,4.858,4.858,0,0,0,4.833,1.658a3.469,3.469,0,0,0-.619.95c-.06.144-.07.23-.214.283s-.289.05-.426.1a5.362,5.362,0,0,0-3.082,2.8A8.868,8.868,0,0,0,.008,9.424a15.839,15.839,0,0,0,2.7,6.923A8.6,8.6,0,0,0,7.151,18.86,12.732,12.732,0,0,0,4.828,23.2a21.229,21.229,0,0,0-1.063,5.266,17.2,17.2,0,0,0,.264,5.192,5.627,5.627,0,0,0,2.514,3.663,12,12,0,0,0,1.935.91,12.732,12.732,0,0,0,1.994.64,4,4,0,0,0,3.787-.81,7.114,7.114,0,0,0,1.018-1.294c.094-.163.151-.27.037-.43a3.075,3.075,0,0,0-.536-.488A5.056,5.056,0,0,1,12.991,32.5c-.159-1.374.209-3.147,1.544-3.747,1.648-.74,3.462.109,4.927.9a8.06,8.06,0,0,1,3.9-5.186c2.217-1.116,4.76-1.246,7.038-2.2a4.2,4.2,0,0,0,1.635-1.041,2.116,2.116,0,0,0,.47-.769,1.246,1.246,0,0,0-.326-.966C31.209,17.962,27.516,14.881,25.593,14.294Z" transform="translate(22.858 2.346)" fill="#191847"/>
        </g>
        <g id="Bottom" transform="translate(0 110.27)">
          <g id="Seat" transform="translate(5.861 24.635)">
            <ellipse id="Ballsy_Ball" data-name="Ballsy Ball" cx="45.132" cy="43.111" rx="45.132" ry="43.111" transform="translate(22.859 -8.798)" fill="#c5cfd6"/>
          </g>
          <path id="Skin" d="M74.188,37.781c-3.733-13.084-6.572-24.6-7.29-28.9C65.186-1.369,80.063-1.966,82.03,3.129c2.976,7.712,8.172,33.052,14.415,71.327L89.309,76.54C81.8,59.907,76.368,45.423,74.188,37.781ZM2.2,24.34c6.89-2.725,31.02-11.255,42.658-13.668,3.344-.694,6.586-1.338,9.633-1.92,9.058-1.73,13.751,14.622,5.027,15.878C37.79,27.76,6.989,30.991,4.354,31.354a3.357,3.357,0,0,1-.456.031C.439,31.386-1.952,25.982,2.2,24.34Z" transform="translate(69.831 18.867)" fill="#b28b67"/>
          <path id="Leg_Back" data-name="Leg Back" d="M37.371,25.062a7.628,7.628,0,0,1-.1-1.943L0,4.133V0H4.432S58.518,13.792,59.708,17.677c.008.028.016.055.022.082l.055.073c7.146,9.835,11.425,57.847,12.83,61.442L58.922,81.319C53.684,61.882,36.926,48.342,37.371,25.062Z" transform="translate(92.608)" fill="#1f28cf"/>
          <path id="Leg_Front" data-name="Leg Front" d="M18.215,38.259,29.472,34.4c-3.409-.683-6.551-1.293-9.237-1.764C2.877,29.584-2.184,20.286.809,0H32.789c5.224,1.5,32.373,12.9,46.459,18.955,9.323,4.011,6.384,18.469,1.1,22.232a.516.516,0,0,1-.293.458c-19.532,8.1-36.257,7.707-47.24,7.314-4.987-.178-8.79-.357-11.134.26Z" transform="translate(66.233)" fill="#2b44ff"/>
          <g id="Right_Shoe" data-name="Right Shoe" transform="matrix(0.438, 0.899, -0.899, 0.438, 87.078, 33.522)">
            <path id="shoe" d="M4.474,5.033A2,2,0,0,0,1.908,6.381L0,13.106A64.242,64.242,0,0,0,.9,21H57.3s2.2-7.268-2.538-7.848-7.87-1.047-7.87-1.047L20.68.419a1,1,0,0,0-1.332.532L17.663,5.039s-4.385,2.046-7.127,2.046Z" transform="translate(1 19)" fill="#e4e4e4"/>
          </g>
          <g id="Right_Shoe-2" data-name="Right Shoe" transform="translate(154.152 77.423)">
            <path id="shoe-2" data-name="shoe" d="M2.622,3.089a1.172,1.172,0,0,0-1.5.791L0,7.824a37.706,37.706,0,0,0,.528,4.63H33.587s1.289-4.263-1.488-4.6-4.613-.614-4.613-.614L12.121.383A.586.586,0,0,0,11.341.7l-.988,2.4a13.278,13.278,0,0,1-4.177,1.2Z" transform="translate(0.586 11.007)" fill="#e4e4e4"/>
          </g>
        </g>
        <g id="Body_Long_Sleeve_1" data-name="Body/Long Sleeve 1" transform="translate(11.723 48.096)">
          <path id="Skin-2" data-name="Skin" d="M.719,50.9c-.654-.4-1.37-1.924.36-3.111,4.313-2.959,10.528-8.138,11.367-9.843C14.164,34.46,20.013.474,20.013.474L32.262.523S20.918,37.17,20.013,39.412c-1.356,3.364,1.514,8.486,2.741,11.239-1.934.866-2.833-.24-3.817-1.346-1.049-1.179-2.195-2.358-4.8-1.146-3.329,1.55-6.082,4.011-9.363,4.01A7.609,7.609,0,0,1,.719,50.9ZM106.18,17.907,87.666,10.224,91.8,0l18.7,13.739A50.293,50.293,0,0,1,123.2,18.85c.8.733,1.775,2.217-1.558,1.961s-6.85-.376-7.31.761,1.557,2.5.627,4.033a.442.442,0,0,1-.406.219Q112.915,25.824,106.18,17.907Z" transform="translate(20.024 54.086)" fill="#b28b67"/>
          <path id="Coat_Back" data-name="Coat Back" d="M0,1.308,4.973,0C25.123,14.555,35.54,44.994,59.944,59.466L55.017,66.8C14.75,65.354,1.556,28.27,0,1.308Z" transform="matrix(0.996, 0.087, -0.087, 0.996, 74.96, 1.824)" fill="#e87613"/>
          <path id="Shirt" d="M0,66.866H44.846c2.049,0,1.663-2.961,1.367-4.455C42.794,45.166,29.448,26.577,29.448,2.03L16.512,0C5.813,17.22,2.113,38.421,0,66.866Z" transform="translate(52.752)" fill="#dde3e9"/>
          <path id="Coat_Front" data-name="Coat Front" d="M.059,93.561C-.975,60.082,11.692,34.318,22.292,18.785a6.8,6.8,0,0,1-5.821-3.579C11.743,6.669,13.45,1.968,18.5.423s9.559,1.638,17.609,1.638a6.27,6.27,0,0,1,.96.068l4.293.245S58.793,61.48,50.978,81.244H15.531A112.589,112.589,0,0,1,9.677,93.561Z" transform="translate(32.178 -2.061)" fill="#ff9b21"/>
          <path id="Shade" d="M13.248,21.436H0C2.43,15.6,5.11,8.385,7.966,0c1.189,10.333,2.966,17.544,5.282,21.435Z" transform="translate(47.709 57.747)" fill="rgba(0,0,0,0.1)"/>
        </g>
      </g>
      <g id="Bottom-2" data-name="Bottom" transform="translate(304.344 75.658)">
        <path id="Leg" d="M41.119,0,19.062,72.249,8.378,133.691H0L11.29,0Z" transform="translate(22.355 0)" fill="#997659"/>
        <path id="Leg-2" data-name="Leg" d="M33.231,0c-1.5,39.668.265,60.13.6,63.734s4.927,26.973,15.8,71.167L40.7,131.829c-17.178-40.533-23.032-61.6-25-66.921S8.5,37.95,0,0Z" transform="translate(38.134 0)" fill="#b28b67"/>
        <g id="Left_Shoe" data-name="Left Shoe" transform="translate(0 127.22)">
          <path id="shoe-3" data-name="shoe" d="M31.264,3.093a1.172,1.172,0,0,1,1.5.792l1.119,3.949a37.8,37.8,0,0,1-.528,4.636H.3S-.99,8.2,1.786,7.861,6.4,7.246,6.4,7.246L21.765.383A.586.586,0,0,1,22.545.7l.988,2.4A13.265,13.265,0,0,0,27.71,4.3Z" transform="translate(0 -0.332)" fill="#e4e4e4"/>
        </g>
        <g id="Right_Shoe-3" data-name="Right Shoe" transform="translate(55.096 127.22)">
          <path id="shoe-4" data-name="shoe" d="M31.264,3.093a1.172,1.172,0,0,1,1.5.792l1.119,3.949a37.8,37.8,0,0,1-.528,4.636H.3S-.99,8.2,1.786,7.861,6.4,7.246,6.4,7.246L21.765.383A.586.586,0,0,1,22.545.7l.988,2.4A13.265,13.265,0,0,0,27.71,4.3Z" transform="translate(0 -0.332)" fill="#e4e4e4"/>
        </g>
        <path id="Bottom-3" data-name="Bottom" d="M38.022,0,28.644,36.81H0L4.271,0Z" transform="translate(28.382 0)" fill="#69a1ac"/>
        <path id="Bottom-4" data-name="Bottom" d="M35.883,0c4.629,13.9,1.758,36.81,1.758,36.81H8.411L.373,0Z" transform="translate(35.797)" fill="#89c5cc"/>
      </g>
      <g id="Group-2" data-name="Group" transform="translate(0 0)">
        <g id="Head-4" data-name="Head" transform="translate(43.374)">
          <g id="Head-5" data-name="Head" transform="translate(31.651 18.183)">
            <path id="Head-6" data-name="Head" d="M0,42.817,4.843,20.23C2.142,17.057.314,13.169.619,8.813,1.5-3.739,18.961-.978,22.357,5.357s2.993,22.405-1.4,23.537c-1.751.452-5.48-.655-9.276-2.944l2.383,16.866Z" transform="translate(0 0)" fill="#b28b67"/>
          </g>
          <path id="hair-2" data-name="hair" d="M25.593,14.294a18.347,18.347,0,0,0-5.886-.651,10.138,10.138,0,0,0,.717-5.121,15.614,15.614,0,0,0-1.66-4.63,6.335,6.335,0,0,0-1.228-1.915A4.193,4.193,0,0,0,15.549.909a5.312,5.312,0,0,0-2.289,0c-.333.07-.631.222-.958.307s-.5-.123-.739-.333A4.183,4.183,0,0,0,9.383.034,5.621,5.621,0,0,0,6.9.332,4.858,4.858,0,0,0,4.833,1.658a3.469,3.469,0,0,0-.619.95c-.06.144-.07.23-.214.283s-.289.05-.426.1a5.362,5.362,0,0,0-3.082,2.8A8.868,8.868,0,0,0,.008,9.424a15.839,15.839,0,0,0,2.7,6.923A8.6,8.6,0,0,0,7.151,18.86,12.732,12.732,0,0,0,4.828,23.2a21.229,21.229,0,0,0-1.063,5.266,17.2,17.2,0,0,0,.264,5.192,5.627,5.627,0,0,0,2.514,3.663,12,12,0,0,0,1.935.91,12.732,12.732,0,0,0,1.994.64,4,4,0,0,0,3.787-.81,7.114,7.114,0,0,0,1.018-1.294c.094-.163.151-.27.037-.43a3.075,3.075,0,0,0-.536-.488A5.056,5.056,0,0,1,12.991,32.5c-.159-1.374.209-3.147,1.544-3.747,1.648-.74,3.462.109,4.927.9a8.06,8.06,0,0,1,3.9-5.186c2.217-1.116,4.76-1.246,7.038-2.2a4.2,4.2,0,0,0,1.635-1.041,2.116,2.116,0,0,0,.47-.769,1.246,1.246,0,0,0-.326-.966C31.209,17.962,27.516,14.881,25.593,14.294Z" transform="translate(22.858 2.346)" fill="#191847"/>
        </g>
        <g id="Bottom-5" data-name="Bottom" transform="translate(28.72 110.27)">
          <g id="Seat-2" data-name="Seat" transform="translate(0 18.837)">
            <ellipse id="Ballsy_Ball-2" data-name="Ballsy Ball" cx="45.132" cy="43.111" rx="45.132" ry="43.111" fill="#c5cfd6"/>
          </g>
          <path id="Skin-3" data-name="Skin" d="M74.188,37.781c-3.733-13.084-6.572-24.6-7.29-28.9C65.186-1.369,80.063-1.966,82.03,3.129c2.976,7.712,8.172,33.052,14.415,71.327L89.309,76.54C81.8,59.907,76.368,45.423,74.188,37.781ZM2.2,24.34c6.89-2.725,31.02-11.255,42.658-13.668,3.344-.694,6.586-1.338,9.633-1.92,9.058-1.73,13.751,14.622,5.027,15.878C37.79,27.76,6.989,30.991,4.354,31.354a3.357,3.357,0,0,1-.456.031C.439,31.386-1.952,25.982,2.2,24.34Z" transform="translate(41.11 18.867)" fill="#b28b67"/>
          <path id="Leg_Back-2" data-name="Leg Back" d="M37.371,25.062a7.628,7.628,0,0,1-.1-1.943L0,4.133V0H4.432S58.518,13.792,59.708,17.677c.008.028.016.055.022.082l.055.073c7.146,9.835,11.425,57.847,12.83,61.442L58.922,81.319C53.684,61.882,36.926,48.342,37.371,25.062Z" transform="translate(63.888)" fill="#1f28cf"/>
          <path id="Leg_Front-2" data-name="Leg Front" d="M18.215,38.259,29.472,34.4c-3.409-.683-6.551-1.293-9.237-1.764C2.877,29.584-2.184,20.286.809,0H32.789c5.224,1.5,32.373,12.9,46.459,18.955,9.323,4.011,6.384,18.469,1.1,22.232a.516.516,0,0,1-.293.458c-19.532,8.1-36.257,7.707-47.24,7.314-4.987-.178-8.79-.357-11.134.26Z" transform="translate(37.512)" fill="#2b44ff"/>
          <g id="Right_Shoe-4" data-name="Right Shoe" transform="matrix(0.438, 0.899, -0.899, 0.438, 60.358, 29.522)">
            <path id="shoe-5" data-name="shoe" d="M2.694,3.508a1.187,1.187,0,0,0-1.545.911L0,8.962a48.471,48.471,0,0,0,.543,5.333H34.506s1.324-4.91-1.528-5.3-4.739-.707-4.739-.707L12.453.391a.58.58,0,0,0-.8.36L10.636,3.512A12.581,12.581,0,0,1,6.345,4.894Z" transform="translate(1 19)" fill="#e4e4e4"/>
          </g>
          <g id="Right_Shoe-5" data-name="Right Shoe" transform="translate(125.432 77.423)">
            <path id="shoe-6" data-name="shoe" d="M2.622,3.089a1.172,1.172,0,0,0-1.5.791L0,7.824a37.706,37.706,0,0,0,.528,4.63H33.587s1.289-4.263-1.488-4.6-4.613-.614-4.613-.614L12.121.383A.586.586,0,0,0,11.341.7l-.988,2.4a13.278,13.278,0,0,1-4.177,1.2Z" transform="translate(0.586 11.007)" fill="#e4e4e4"/>
          </g>
        </g>
        <g id="Body_Long_Sleeve_1-2" data-name="Body/Long Sleeve 1" transform="translate(11.723 48.096)">
          <path id="Skin-4" data-name="Skin" d="M.719,50.9c-.654-.4-1.37-1.924.36-3.111,4.313-2.959,10.528-8.138,11.367-9.843C14.164,34.46,20.013.474,20.013.474L32.262.523S20.918,37.17,20.013,39.412c-1.356,3.364,1.514,8.486,2.741,11.239-1.934.866-2.833-.24-3.817-1.346-1.049-1.179-2.195-2.358-4.8-1.146-3.329,1.55-6.082,4.011-9.363,4.01A7.609,7.609,0,0,1,.719,50.9ZM106.18,17.907,87.666,10.224,91.8,0l18.7,13.739A50.293,50.293,0,0,1,123.2,18.85c.8.733,1.775,2.217-1.558,1.961s-6.85-.376-7.31.761,1.557,2.5.627,4.033a.442.442,0,0,1-.406.219Q112.915,25.824,106.18,17.907Z" transform="translate(20.024 54.086)" fill="#b28b67"/>
          <path id="Coat_Back-2" data-name="Coat Back" d="M0,1.308,4.973,0C25.123,14.555,35.54,44.994,59.944,59.466L55.017,66.8C14.75,65.354,1.556,28.27,0,1.308Z" transform="matrix(0.996, 0.087, -0.087, 0.996, 74.96, 1.824)" fill="#e87613"/>
          <path id="Shirt-2" data-name="Shirt" d="M0,66.866H44.846c2.049,0,1.663-2.961,1.367-4.455C42.794,45.166,29.448,26.577,29.448,2.03L16.512,0C5.813,17.22,2.113,38.421,0,66.866Z" transform="translate(52.752)" fill="#dde3e9"/>
          <path id="Coat_Front-2" data-name="Coat Front" d="M.059,93.561C-.975,60.082,11.692,34.318,22.292,18.785a6.8,6.8,0,0,1-5.821-3.579C11.743,6.669,13.45,1.968,18.5.423s9.559,1.638,17.609,1.638a6.27,6.27,0,0,1,.96.068l4.293.245S58.793,61.48,50.978,81.244H15.531A112.589,112.589,0,0,1,9.677,93.561Z" transform="translate(32.178 -2.061)" fill="#ff9b21"/>
          <path id="Shade-2" data-name="Shade" d="M13.248,21.436H0C2.43,15.6,5.11,8.385,7.966,0c1.189,10.333,2.966,17.544,5.282,21.435Z" transform="translate(47.709 57.747)" fill="rgba(0,0,0,0.1)"/>
        </g>
      </g>
    </g>
    <g id="Head-7" data-name="Head" transform="translate(824.858 1650.967)">
      <path id="Head-8" data-name="Head" d="M0,0,4.311,20.094A14.136,14.136,0,0,0,.551,30.25c.784,11.166,16.328,8.71,19.351,3.074s2.665-19.931-1.243-20.938c-1.559-.4-4.878.582-8.257,2.619L12.523,0Z" transform="translate(21.915 38.09) rotate(180)" fill="#b28b67"/>
    </g>
    <g id="Turban" transform="translate(826.615 1646.345)">
      <path id="Path-2" data-name="Path" d="M.633,6.175c-.226-.65-1.763-2.664.975-4.582.492-.345,1.3,0,2.009-.219.53-.164.709-.9,1.316-1.032C5.564.208,6.25.814,6.962.761,7.4.728,8.072.048,8.526.012c.811-.065,1.548.7,2.34.749.459.029.992-.71,1.448-.749a12.216,12.216,0,0,1,3.1.579c.9.145,1.32,1.991,1.983,2.427,2.082,1.369,3.714,1.752,5.4,3.157,2.009,1.67,2.393,2.913,3.225,4.026s1.346,5.035.861,7.548c-.286,1.483-1.032,5.532-2.7,7.1-2.281,2.146-6.921,2.781-7.333,2.5-1.908-1.326-6.184-8.659-9.218-11.251A26.018,26.018,0,0,1,.633,6.175Z" transform="translate(0 0)" fill="#ff9b21"/>
      <g id="Turban-2" data-name="Turban" transform="translate(0 0)" clip-path="url(#clip-path)">
        <path id="Shade-3" data-name="Shade" d="M5.318,17.47c1.255,4.451,2.477,11.323,2.477,11.323l1.542.162S6.784,18.185,5.379,13.872c-.95-2.915-1.723-5.384-2.389-7.4C4.36,9.5,6.122,13.393,7.715,17.386c1.714,4.3,3.646,11,3.646,11h1.551S9.248,17.944,7.4,13.8C5.418,9.361,3.994,5.988,2.86,3.723A122.663,122.663,0,0,1,10.8,17.165,106.963,106.963,0,0,1,14.973,27.81l1.443-.618S12.781,18.119,10.8,14.537C6.493,6.755,2.381,2.06.943.727.695.5.611.443.671.561A.057.057,0,0,0,.627.6a3.776,3.776,0,0,0-.3-.4C.21.063.128,0,.075,0-.544,0,2.8,8.544,5.318,17.47Z" transform="translate(18.996 28.184) rotate(180)" fill="rgba(0,0,0,0.2)"/>
      </g>
    </g>
    <path id="Skin-5" data-name="Skin" d="M16.423,2.085c-.647,1.229-1.395,2.458-3.873,1.978C8.113,3.205,4.253.608.366,4.587c-.478.489-.77,1.955.981,2.608,4.362,1.625,10.844,4.757,11.937,6.048,2.234,2.64,16.607,31.7,16.607,31.7l9.051-2.3S20.768,12.09,19.5,10.349c-1.9-2.611-.519-7.651-.051-10.291A3.475,3.475,0,0,0,18.845,0C17.447,0,16.972,1.043,16.423,2.085Zm99.908,15.742-15.964,7.968,4.3,8.816,15.751-13.353a44.8,44.8,0,0,0,10.97-5.325c.668-.7,1.438-2.078-1.506-1.643s-6.06.759-6.539-.222,1.228-2.314.307-3.618a.386.386,0,0,0-.334-.17Q121.9,10.28,116.331,17.827Z" transform="matrix(-0.998, -0.07, 0.07, -0.998, 905.746, 1769.376)" fill="#b28b67"/>
    <path id="Back_Arm" data-name="Back Arm" d="M1.923,30C-.617,34.877.242,51.458,0,57.491l5.58,2.288C13.359,43.7,23.887,28.273,39.525,15.1a17.889,17.889,0,0,0,6.968-1.043,2.348,2.348,0,0,0,.025-4.441q.716-.522,1.446-1.04L43.766,0C26.1,8.81,9.49,15.452,1.923,30Z" transform="translate(839.392 1743.838) rotate(180)" fill="#69a1ac"/>
    <path id="Shirt-3" data-name="Shirt" d="M39.678,58.547s-24.606,2.7-38.735,0c-1.167-.223-1.116-5.254-.575-6.628C8.8,30.524,14.34,14.861,14.34,0c2.32,1.212,8.119.363,8.119.363C32.85,15.678,37.626,33.25,39.678,58.547Z" transform="translate(819.317 1683.881)" fill="#191847"/>
    <path id="Coat_Front-3" data-name="Coat Front" d="M48.605,117.922h-.812S18.055,99.667,3.556,58.227a11.521,11.521,0,0,1-3.227-1.1c-.961-.5.384-3.482,1.524-4.111Q1.236,50.985.67,48.884l9.855-2.9C17.663,64.8,26.122,75.652,33.11,81.878c.126-5.9,1.644-11.894.657-18q-.187-1.157-.451-2.332a2.348,2.348,0,0,1-2.034-1.924l-.272-1.542a2.346,2.346,0,0,1,.7-2.119C25.455,37.729,9.413,17.349,8.612,0,21.02,4.956,33.624,3.479,45.041,2,53.428.915,61.174-.17,67.733,1.3c8.38,43.079-15.753,93.522-14,116.627Z" transform="translate(893.757 1801.069) rotate(180)" fill="#89c5cc"/>
  </g>
</svg>
