<svg xmlns="http://www.w3.org/2000/svg" width="142.372" height="166.108" viewBox="0 0 142.372 166.108"><defs><style>.a{fill:#414b82;}.b{fill:#695a6e;}.c{fill:#343e6b;}.d{fill:#64afff;}.e{fill:#ffb69e;}.f{fill:#78beff;}.g{fill:#50374b;}.h{fill:#ff3c3c;}.i{fill:#ba6746;}.j{fill:#a5c8cd;}.k{fill:#ff4f38;}</style></defs><path class="a" d="M69.991,199.631h-13.6a7.625,7.625,0,0,0-7.625,7.625v39.281l-.808,19.3L37.054,292.3a6.275,6.275,0,1,0,11.6,4.781l11.328-27.5a6.275,6.275,0,0,0,.468-2.128l.872-20.822c.006-.154,0-.3,0-.456a25.6,25.6,0,0,0,12.656-6.644l3.639-3.506V207.255A7.625,7.625,0,0,0,69.991,199.631Z" transform="translate(-36.579 -134.864)"/><path class="b" d="M362.414,164.795l-10.907-26.472-.825-19.717c-.008-.192-.028-.382-.053-.569l-8.488-38.19a7.625,7.625,0,0,0-9.1-5.783l-13.272,2.96a7.625,7.625,0,0,0-5.783,9.1l8.515,38.184,15.713-3.5.8,19.147a6.267,6.267,0,0,0,.468,2.128l11.328,27.5a6.275,6.275,0,0,0,11.6-4.781Z" transform="translate(-223.86 -49.911)"/><path class="c" d="M130.387,350.023a6.277,6.277,0,0,1-6.12-4.918l-5.826-26.267L97.9,314.931a6.275,6.275,0,0,1,2.345-12.329l24.6,4.68a6.274,6.274,0,0,1,4.953,4.806l6.72,30.3a6.279,6.279,0,0,1-6.131,7.635Z" transform="translate(-74.559 -204.353)"/><path class="d" d="M74.151,246.7V207.255a7.625,7.625,0,0,1,7.625-7.625h13.6A7.625,7.625,0,0,1,103,207.255v28.778l-3.639,3.506A25.6,25.6,0,0,1,81.6,246.7Z" transform="translate(-61.961 -134.863)"/><ellipse class="e" cx="11.288" cy="11.288" rx="11.288" ry="11.288" transform="translate(17.143 38.375)"/><path class="e" d="M123.556,229.285a5.021,5.021,0,0,1-2.2-.506l-20.149-9.8a5.02,5.02,0,1,1,4.392-9.028l18.158,8.832,17.97-7.141a5.02,5.02,0,0,1,3.708,9.33l-20.028,7.959A5.034,5.034,0,0,1,123.556,229.285Z" transform="translate(-78.334 -141.493)"/><path class="f" d="M116.84,215.414,105.6,209.949a5.02,5.02,0,0,0-4.392,9.028l11.063,5.381Z" transform="translate(-78.334 -141.492)"/><path class="g" d="M313.195,241.991a6.355,6.355,0,0,1-.854-.058,6.275,6.275,0,0,1-5.371-7.064l4.125-30.3a6.258,6.258,0,0,1,.326-1.314l8.736-23.818a6.275,6.275,0,0,1,11.783,4.321l-8.5,23.179L319.4,236.561A6.277,6.277,0,0,1,313.195,241.991Z" transform="translate(-219.206 -118.44)"/><path class="h" d="M337.693,121.5l12.936-3.46-.162-.853L342.14,79.847a7.625,7.625,0,0,0-9.1-5.783l-13.272,2.96a7.625,7.625,0,0,0-5.783,9.1l7.493,33.6.531.259A22.516,22.516,0,0,0,337.693,121.5Z" transform="translate(-223.86 -49.911)"/><ellipse class="i" cx="11.288" cy="11.288" rx="11.288" ry="11.288" transform="translate(86.196 0)"/><path class="j" d="M175.711,383.02v17.468a2.321,2.321,0,0,1-2.32,2.32H120a2.321,2.321,0,0,0-2.32,2.32v15.846A2.32,2.32,0,0,0,120,423.3H231.421a2.321,2.321,0,0,0,2.32-2.32V383.02a2.32,2.32,0,0,0-2.32-2.32h-53.39A2.321,2.321,0,0,0,175.711,383.02Z" transform="translate(-91.369 -257.188)"/><path class="i" d="M250.236,124.01a5.021,5.021,0,0,1-.323-9.83l18.8-4.517,9.752-17.681a5.02,5.02,0,0,1,8.791,4.849l-10.821,19.62a5.019,5.019,0,0,1-3.223,2.457l-20.955,5.035A5.008,5.008,0,0,1,250.236,124.01Z" transform="translate(-178.1 -60.386)"/><path class="k" d="M336.314,107.662l5.973-10.83a5.02,5.02,0,0,0-8.791-4.849l-5.974,10.832Z" transform="translate(-233.13 -60.387)"/></svg>