<svg xmlns="http://www.w3.org/2000/svg" width="153.963" height="166.11" viewBox="0 0 153.963 166.11"><defs><style>.a{fill:#343e6b;}.b{fill:#414b82;}.c{fill:#ffb69e;}.d{fill:#64afff;}.e{fill:#50374b;}.f{fill:#695a6e;}.g{fill:#ba6746;}.h{fill:#ff3c3c;}.i{fill:#3c5064;}.j{fill:#46738c;}</style></defs><path class="a" d="M126.132,338.018a7.3,7.3,0,0,1-7.3-7.3v-58.38a7.3,7.3,0,1,1,14.608,0v58.38A7.3,7.3,0,0,1,126.132,338.018Z" transform="translate(-86.35 -179.045)"/><path class="b" d="M71.787,338.018a7.3,7.3,0,0,1-7.3-7.3v-58.38a7.3,7.3,0,1,1,14.608,0v58.38A7.3,7.3,0,0,1,71.787,338.018Z" transform="translate(-49.636 -179.045)"/><path class="c" d="M80.652,121.7a14.549,14.549,0,0,0-14.628-14.331H33.348A14.549,14.549,0,0,0,18.72,121.7v44.746a6.086,6.086,0,0,0,12.173,0v-44.7a2.45,2.45,0,0,1,2.455-2.209h.219v46.281H65.806v-46.28h.217a2.45,2.45,0,0,1,2.455,2.209v44.7a6.086,6.086,0,1,0,12.173,0V121.733A.245.245,0,0,0,80.652,121.7Z" transform="translate(-18.72 -72.536)"/><path class="d" d="M80.652,121.7a14.549,14.549,0,0,0-14.628-14.331H56.109c.129,3.69-3.3,6.822-6.88,6.822a6.994,6.994,0,0,1-6.875-6.822H33.348A14.549,14.549,0,0,0,18.72,121.7v13.19H30.893v-13.14a2.45,2.45,0,0,1,2.455-2.209h.219v46.281H65.806v-46.28h.217a2.45,2.45,0,0,1,2.455,2.209v13.14H80.652v-13.16C80.652,121.723,80.652,121.713,80.652,121.7Z" transform="translate(-18.72 -72.536)"/><ellipse class="c" cx="12.614" cy="12.614" rx="12.614" ry="12.614" transform="translate(18.35 5.723)"/><path class="e" d="M409.8,338.018a7.3,7.3,0,0,1-7.3-7.3v-58.38a7.3,7.3,0,1,1,14.608,0v58.38A7.3,7.3,0,0,1,409.8,338.018Z" transform="translate(-277.986 -179.045)"/><path class="f" d="M355.454,338.018a7.3,7.3,0,0,1-7.3-7.3v-58.38a7.3,7.3,0,1,1,14.608,0v58.38A7.3,7.3,0,0,1,355.454,338.018Z" transform="translate(-241.272 -179.045)"/><path class="g" d="M364.32,121.7a14.549,14.549,0,0,0-14.628-14.331H317.017A14.549,14.549,0,0,0,302.389,121.7v44.746a6.086,6.086,0,0,0,12.173,0v-44.7a2.45,2.45,0,0,1,2.455-2.209h.219v46.281h32.239v-46.28h.217a2.45,2.45,0,0,1,2.455,2.209v44.7a6.086,6.086,0,1,0,12.173,0V121.733C364.32,121.723,364.32,121.713,364.32,121.7Z" transform="translate(-210.357 -72.536)"/><path class="h" d="M364.32,121.7a14.549,14.549,0,0,0-14.628-14.331h-9.914c.129,3.69-3.3,6.822-6.88,6.822a6.994,6.994,0,0,1-6.875-6.822h-9.007A14.549,14.549,0,0,0,302.388,121.7v13.19h12.173v-13.14a2.45,2.45,0,0,1,2.455-2.209h.219v46.281h32.239v-46.28h.217a2.45,2.45,0,0,1,2.455,2.209v13.14H364.32V121.7Z" transform="translate(-210.357 -72.536)"/><ellipse class="g" cx="12.614" cy="12.614" rx="12.614" ry="12.614" transform="translate(110.382 5.723)"/><path class="i" d="M282.142,347.787a7.477,7.477,0,0,1-7.477-7.477V276.4a7.477,7.477,0,1,1,14.954,0v63.907A7.477,7.477,0,0,1,282.142,347.787Z" transform="translate(-191.628 -181.677)"/><path class="j" d="M226.507,347.787a7.477,7.477,0,0,1-7.477-7.477V276.4a7.477,7.477,0,0,1,14.954,0v63.907A7.477,7.477,0,0,1,226.507,347.787Z" transform="translate(-154.043 -181.677)"/><path class="c" d="M251.017.352a6.232,6.232,0,0,0-7.941,3.819l-8.657,24.7L215.135,39.154H186.952a14.9,14.9,0,0,0-14.975,14.7V99.633a6.231,6.231,0,1,0,12.462,0V53.888a2.506,2.506,0,0,1,2.514-2.272h.29V98.867h33V50.551L242.427,38.72a6.23,6.23,0,0,0,2.948-3.437l9.461-26.99A6.231,6.231,0,0,0,251.017.352Z" transform="translate(-122.255 0)"/><path class="b" d="M228.744,98.311l-13.608,7.259h-4.724c.136,3.511-3.124,6.5-6.528,6.5a6.638,6.638,0,0,1-6.525-6.5H186.953a14.9,14.9,0,0,0-14.976,14.7v13.422h12.462V120.3a2.506,2.506,0,0,1,2.514-2.272h.29v47.251h33V116.967l14.684-7.832Z" transform="translate(-122.255 -66.416)"/><ellipse class="c" cx="12.914" cy="12.914" rx="12.914" ry="12.914" transform="translate(68.574 9.209)"/></svg>