<svg xmlns="http://www.w3.org/2000/svg" width="83.212" height="166.11" viewBox="0 0 83.212 166.11"><defs><style>.a{fill:#42464a;}.b{fill:#50555a;}.c{fill:#ffb69e;}.d{fill:#414b82;}</style></defs><path class="a" d="M237.924,347.787a7.477,7.477,0,0,1-7.477-7.477V276.4a7.477,7.477,0,0,1,14.954,0v63.907A7.477,7.477,0,0,1,237.924,347.787Z" transform="translate(-197.131 -181.677)"/><path class="b" d="M182.288,347.787a7.477,7.477,0,0,1-7.477-7.477V276.4a7.477,7.477,0,0,1,14.954,0v63.907A7.477,7.477,0,0,1,182.288,347.787Z" transform="translate(-159.545 -181.677)"/><path class="c" d="M206.8.352a6.231,6.231,0,0,0-7.941,3.819l-8.657,24.7L170.917,39.154H142.734a14.9,14.9,0,0,0-14.976,14.7V99.633a6.231,6.231,0,1,0,12.462,0V53.888a2.506,2.506,0,0,1,2.514-2.272h.29V98.867h33V50.551L198.209,38.72a6.23,6.23,0,0,0,2.948-3.437l9.461-26.99A6.231,6.231,0,0,0,206.8.352Z" transform="translate(-127.758 0)"/><path class="d" d="M184.526,98.311l-13.608,7.259h-4.724c.136,3.511-3.124,6.5-6.528,6.5a6.638,6.638,0,0,1-6.525-6.5H142.735a14.9,14.9,0,0,0-14.976,14.7v13.422h12.462V120.3a2.506,2.506,0,0,1,2.514-2.272h.29v47.251h33V116.967l14.684-7.832Z" transform="translate(-127.759 -66.416)"/><ellipse class="c" cx="12.914" cy="12.914" rx="12.914" ry="12.914" transform="translate(18.855 9.209)"/></svg>